G04*
G04 #@! TF.GenerationSoftware,Altium Limited,Altium Designer,20.1.12 (249)*
G04*
G04 Layer_Color=65535*
%FSLAX25Y25*%
%MOIN*%
G70*
G04*
G04 #@! TF.SameCoordinates,A6E25834-E18E-4168-B90B-242D5B1D2A4A*
G04*
G04*
G04 #@! TF.FilePolarity,Positive*
G04*
G01*
G75*
%ADD10C,0.01181*%
%ADD11C,0.00984*%
%ADD12C,0.00787*%
%ADD13C,0.01575*%
%ADD14C,0.00394*%
%ADD15C,0.03937*%
D10*
X205915Y-120043D02*
G03*
X205915Y-120043I-591J0D01*
G01*
X243498Y-169736D02*
G03*
X243498Y-169736I-591J0D01*
G01*
X297342Y-188681D02*
G03*
X297342Y-188681I-591J0D01*
G01*
X347342D02*
G03*
X347342Y-188681I-591J0D01*
G01*
D11*
X233076Y-57406D02*
G03*
X233076Y-57406I-492J0D01*
G01*
D12*
X267954Y-24181D02*
G03*
X267954Y-24181I-19685J0D01*
G01*
X39643Y-106575D02*
G03*
X39643Y-106575I-7874J0D01*
G01*
X38643Y-132181D02*
G03*
X38643Y-132181I-7874J0D01*
G01*
X254100Y-84681D02*
G03*
X254100Y-84681I-4331J0D01*
G01*
X243600Y-74181D02*
G03*
X243600Y-74181I-4331J0D01*
G01*
Y-84681D02*
G03*
X243600Y-84681I-4331J0D01*
G01*
X233100Y-74181D02*
G03*
X233100Y-74181I-4331J0D01*
G01*
Y-84681D02*
G03*
X233100Y-84681I-4331J0D01*
G01*
X254100Y-74181D02*
G03*
X254100Y-74181I-4331J0D01*
G01*
X339638Y-120000D02*
X344362D01*
X249982Y-108256D02*
X251557D01*
X249982Y-105106D02*
X251557D01*
X237482Y-108256D02*
X239057D01*
X237482Y-105106D02*
X239057D01*
X225482Y-108256D02*
X227057D01*
X225482Y-105106D02*
X227057D01*
X249982Y-96256D02*
X251557D01*
X249982Y-93106D02*
X251557D01*
X237482Y-96256D02*
X239057D01*
X237482Y-93106D02*
X239057D01*
X225482Y-96256D02*
X227057D01*
X225482Y-93106D02*
X227057D01*
X250769Y-103043D02*
Y-98319D01*
X238269Y-103043D02*
Y-98319D01*
X226269Y-103043D02*
Y-98319D01*
X254907Y-152181D02*
X259631D01*
X254907Y-138681D02*
X259631D01*
X205907Y-121681D02*
X210631D01*
X233667Y-51697D02*
X245872D01*
X233667Y-53665D02*
X245872D01*
Y-51697D01*
X233667Y-53665D02*
Y-51697D01*
X206269Y-53681D02*
Y-45681D01*
X202269D02*
X206269Y-49681D01*
X202269Y-53681D02*
Y-45681D01*
Y-53681D02*
X206269Y-49681D01*
Y-45681D02*
X207769D01*
Y-46681D02*
Y-45681D01*
X204769Y-53681D02*
Y-52681D01*
Y-53681D02*
X206269D01*
X247907Y-52181D02*
X252631D01*
X226907Y-52681D02*
X231631D01*
X222407Y-24181D02*
X227132D01*
X202269Y-69681D02*
Y-61681D01*
Y-65681D02*
X206269Y-69681D01*
Y-61681D01*
X202269Y-65681D02*
X206269Y-61681D01*
X200769Y-69681D02*
X202269D01*
X200769D02*
Y-68681D01*
X203769Y-62681D02*
Y-61681D01*
X202269D02*
X203769D01*
X206269Y-20681D02*
Y-12681D01*
X202269D02*
X206269Y-16681D01*
X202269Y-20681D02*
Y-12681D01*
Y-20681D02*
X206269Y-16681D01*
Y-12681D02*
X207769D01*
Y-13681D02*
Y-12681D01*
X204769Y-20681D02*
Y-19681D01*
Y-20681D02*
X206269D01*
X202269Y-37681D02*
Y-29681D01*
Y-33681D02*
X206269Y-37681D01*
Y-29681D01*
X202269Y-33681D02*
X206269Y-29681D01*
X200769Y-37681D02*
X202269D01*
X200769D02*
Y-36681D01*
X203769Y-30681D02*
Y-29681D01*
X202269D02*
X203769D01*
X220368Y-149083D02*
X245171D01*
X220368D02*
Y-124279D01*
X245171D01*
Y-149083D02*
Y-124279D01*
X258844Y-126469D02*
Y-124894D01*
X255695Y-126469D02*
Y-124894D01*
X300852Y-111681D02*
X306652D01*
X298852Y-120681D02*
X300852Y-121681D01*
X298852Y-120681D02*
Y-112681D01*
X300852Y-111681D01*
X306652D02*
X308652Y-112681D01*
Y-120681D02*
Y-112681D01*
X306652Y-121681D02*
X308652Y-120681D01*
X298852Y-130681D02*
X300852Y-131681D01*
X298852Y-130681D02*
Y-122681D01*
X300852Y-121681D01*
X306652D02*
X308652Y-122681D01*
Y-130681D02*
Y-122681D01*
X306652Y-131681D02*
X308652Y-130681D01*
X298852Y-140681D02*
X300852Y-141681D01*
X298852Y-140681D02*
Y-132681D01*
X300852Y-131681D01*
X306652D02*
X308652Y-132681D01*
Y-140681D02*
Y-132681D01*
X306652Y-141681D02*
X308652Y-140681D01*
X298852Y-150681D02*
X300852Y-151681D01*
X298852Y-150681D02*
Y-142681D01*
X300852Y-141681D01*
X306652D02*
X308652Y-142681D01*
Y-150681D02*
Y-142681D01*
X306652Y-151681D02*
X308652Y-150681D01*
X298852Y-160681D02*
X300852Y-161681D01*
X298852Y-160681D02*
Y-152681D01*
X300852Y-151681D01*
X306652D02*
X308652Y-152681D01*
Y-160681D02*
Y-152681D01*
X306652Y-161681D02*
X308652Y-160681D01*
X298852Y-190681D02*
X300852Y-191681D01*
X298852Y-190681D02*
Y-182681D01*
X300852Y-181681D01*
X306652D02*
X308652Y-182681D01*
Y-190681D02*
Y-182681D01*
X306652Y-191681D02*
X308652Y-190681D01*
X300852Y-191681D02*
X306652D01*
X298852Y-180681D02*
X300852Y-181681D01*
X298852Y-180681D02*
Y-172681D01*
X300852Y-171681D01*
X306652D02*
X308652Y-172681D01*
Y-180681D02*
Y-172681D01*
X306652Y-181681D02*
X308652Y-180681D01*
X298852Y-170681D02*
X300852Y-171681D01*
X298852Y-170681D02*
Y-162681D01*
X300852Y-161681D01*
X306652D02*
X308652Y-162681D01*
Y-170681D02*
Y-162681D01*
X306652Y-171681D02*
X308652Y-170681D01*
X350852Y-111681D02*
X356652D01*
X348852Y-120681D02*
X350852Y-121681D01*
X348852Y-120681D02*
Y-112681D01*
X350852Y-111681D01*
X356652D02*
X358652Y-112681D01*
Y-120681D02*
Y-112681D01*
X356652Y-121681D02*
X358652Y-120681D01*
X348852Y-130681D02*
X350852Y-131681D01*
X348852Y-130681D02*
Y-122681D01*
X350852Y-121681D01*
X356652D02*
X358652Y-122681D01*
Y-130681D02*
Y-122681D01*
X356652Y-131681D02*
X358652Y-130681D01*
X348852Y-140681D02*
X350852Y-141681D01*
X348852Y-140681D02*
Y-132681D01*
X350852Y-131681D01*
X356652D02*
X358652Y-132681D01*
Y-140681D02*
Y-132681D01*
X356652Y-141681D02*
X358652Y-140681D01*
X348852Y-150681D02*
X350852Y-151681D01*
X348852Y-150681D02*
Y-142681D01*
X350852Y-141681D01*
X356652D02*
X358652Y-142681D01*
Y-150681D02*
Y-142681D01*
X356652Y-151681D02*
X358652Y-150681D01*
X348852Y-160681D02*
X350852Y-161681D01*
X348852Y-160681D02*
Y-152681D01*
X350852Y-151681D01*
X356652D02*
X358652Y-152681D01*
Y-160681D02*
Y-152681D01*
X356652Y-161681D02*
X358652Y-160681D01*
X348852Y-190681D02*
X350852Y-191681D01*
X348852Y-190681D02*
Y-182681D01*
X350852Y-181681D01*
X356652D02*
X358652Y-182681D01*
Y-190681D02*
Y-182681D01*
X356652Y-191681D02*
X358652Y-190681D01*
X350852Y-191681D02*
X356652D01*
X348852Y-180681D02*
X350852Y-181681D01*
X348852Y-180681D02*
Y-172681D01*
X350852Y-171681D01*
X356652D02*
X358652Y-172681D01*
Y-180681D02*
Y-172681D01*
X356652Y-181681D02*
X358652Y-180681D01*
X348852Y-170681D02*
X350852Y-171681D01*
X348852Y-170681D02*
Y-162681D01*
X350852Y-161681D01*
X356652D02*
X358652Y-162681D01*
Y-170681D02*
Y-162681D01*
X356652Y-171681D02*
X358652Y-170681D01*
X354736Y-8870D02*
Y-8083D01*
Y-8477D01*
X352375D01*
X352768Y-8870D01*
X352375Y-6902D02*
X354736D01*
Y-5722D01*
X354343Y-5328D01*
X353949D01*
X353555Y-5722D01*
Y-6902D01*
Y-5722D01*
X353162Y-5328D01*
X352768D01*
X352375Y-5722D01*
Y-6902D01*
X366403Y-40945D02*
X363779D01*
X366403Y-38321D01*
Y-37665D01*
X365747Y-37009D01*
X364436D01*
X363779Y-37665D01*
X367715Y-37009D02*
Y-40945D01*
X369683D01*
X370339Y-40289D01*
Y-39633D01*
X369683Y-38977D01*
X367715D01*
X369683D01*
X370339Y-38321D01*
Y-37665D01*
X369683Y-37009D01*
X367715D01*
X312598Y-115434D02*
X311024D01*
Y-117795D01*
X312598D01*
X311024Y-116615D02*
X311811D01*
X313385Y-117795D02*
Y-115434D01*
X314959Y-117795D01*
Y-115434D01*
X315746Y-117795D02*
Y-116221D01*
X316534Y-115434D01*
X317321Y-116221D01*
Y-117795D01*
Y-116615D01*
X315746D01*
X318108Y-115434D02*
Y-117795D01*
X319289D01*
X319682Y-117402D01*
Y-117008D01*
X319289Y-116615D01*
X318108D01*
X319289D01*
X319682Y-116221D01*
Y-115827D01*
X319289Y-115434D01*
X318108D01*
X320469D02*
Y-117795D01*
X322044D01*
X324405Y-115434D02*
X322831D01*
Y-117795D01*
X324405D01*
X322831Y-116615D02*
X323618D01*
X312598Y-165827D02*
X312204Y-165434D01*
X311417D01*
X311024Y-165827D01*
Y-166221D01*
X311417Y-166615D01*
X312204D01*
X312598Y-167008D01*
Y-167402D01*
X312204Y-167795D01*
X311417D01*
X311024Y-167402D01*
X313385Y-165434D02*
Y-167795D01*
X314959D01*
X317321Y-165434D02*
X315746D01*
Y-167795D01*
X317321D01*
X315746Y-166615D02*
X316534D01*
X319682Y-165434D02*
X318108D01*
Y-167795D01*
X319682D01*
X318108Y-166615D02*
X318895D01*
X320469Y-167795D02*
Y-165434D01*
X321650D01*
X322044Y-165827D01*
Y-166615D01*
X321650Y-167008D01*
X320469D01*
X311024Y-185434D02*
Y-187795D01*
X312204D01*
X312598Y-187402D01*
Y-185827D01*
X312204Y-185434D01*
X311024D01*
X313385D02*
X314172D01*
X313779D01*
Y-187795D01*
X313385D01*
X314172D01*
X315353D02*
Y-185434D01*
X316534D01*
X316927Y-185827D01*
Y-186615D01*
X316534Y-187008D01*
X315353D01*
X316140D02*
X316927Y-187795D01*
X362598Y-147795D02*
X361024D01*
X362598Y-146221D01*
Y-145827D01*
X362204Y-145434D01*
X361417D01*
X361024Y-145827D01*
X363385Y-147795D02*
Y-146221D01*
X364172Y-145434D01*
X364959Y-146221D01*
Y-147795D01*
Y-146615D01*
X363385D01*
X337098Y-7296D02*
Y-8870D01*
X335524Y-7296D01*
X335131D01*
X334737Y-7689D01*
Y-8477D01*
X335131Y-8870D01*
X337098Y-6509D02*
X335524D01*
X334737Y-5722D01*
X335524Y-4934D01*
X337098D01*
X335918D01*
Y-6509D01*
X363779Y-68110D02*
X365091D01*
X364436D01*
Y-64174D01*
X363779Y-64830D01*
X367059Y-68110D02*
Y-65486D01*
X368371Y-64174D01*
X369683Y-65486D01*
Y-68110D01*
Y-66142D01*
X367059D01*
X363779Y-82677D02*
X365091D01*
X364436D01*
Y-78741D01*
X363779Y-79397D01*
X367059Y-78741D02*
Y-82677D01*
X369027D01*
X369683Y-82021D01*
Y-81365D01*
X369027Y-80709D01*
X367059D01*
X369027D01*
X369683Y-80053D01*
Y-79397D01*
X369027Y-78741D01*
X367059D01*
X362598Y-137795D02*
X361024D01*
X362598Y-136221D01*
Y-135827D01*
X362204Y-135434D01*
X361417D01*
X361024Y-135827D01*
X363385Y-135434D02*
Y-137795D01*
X364566D01*
X364959Y-137402D01*
Y-137008D01*
X364566Y-136615D01*
X363385D01*
X364566D01*
X364959Y-136221D01*
Y-135827D01*
X364566Y-135434D01*
X363385D01*
X361024Y-115434D02*
Y-117008D01*
X361811Y-117795D01*
X362598Y-117008D01*
Y-115434D01*
X363385Y-117795D02*
Y-115434D01*
X364172Y-116221D01*
X364959Y-115434D01*
Y-117795D01*
X366927Y-115434D02*
X366140D01*
X365746Y-115827D01*
Y-117402D01*
X366140Y-117795D01*
X366927D01*
X367321Y-117402D01*
Y-115827D01*
X366927Y-115434D01*
X368108D02*
X369682D01*
X368895D01*
Y-117795D01*
X311024Y-147795D02*
Y-145434D01*
X311811Y-146221D01*
X312598Y-145434D01*
Y-147795D01*
X314959Y-145827D02*
X314566Y-145434D01*
X313779D01*
X313385Y-145827D01*
Y-146221D01*
X313779Y-146615D01*
X314566D01*
X314959Y-147008D01*
Y-147402D01*
X314566Y-147795D01*
X313779D01*
X313385Y-147402D01*
X315746Y-145827D02*
X316140Y-145434D01*
X316927D01*
X317321Y-145827D01*
Y-146221D01*
X316927Y-146615D01*
X316534D01*
X316927D01*
X317321Y-147008D01*
Y-147402D01*
X316927Y-147795D01*
X316140D01*
X315746Y-147402D01*
X362598Y-125827D02*
X362204Y-125434D01*
X361417D01*
X361024Y-125827D01*
Y-127402D01*
X361417Y-127795D01*
X362204D01*
X362598Y-127402D01*
Y-126615D01*
X361811D01*
X363385Y-127795D02*
Y-125434D01*
X364959Y-127795D01*
Y-125434D01*
X365746D02*
Y-127795D01*
X366927D01*
X367321Y-127402D01*
Y-125827D01*
X366927Y-125434D01*
X365746D01*
X361024Y-157795D02*
X361811D01*
X361417D01*
Y-155434D01*
X361024Y-155827D01*
X362991Y-157795D02*
Y-156221D01*
X363779Y-155434D01*
X364566Y-156221D01*
Y-157795D01*
Y-156615D01*
X362991D01*
X311024Y-137795D02*
Y-135434D01*
X311811Y-136221D01*
X312598Y-135434D01*
Y-137795D01*
X314959Y-135827D02*
X314566Y-135434D01*
X313779D01*
X313385Y-135827D01*
Y-136221D01*
X313779Y-136615D01*
X314566D01*
X314959Y-137008D01*
Y-137402D01*
X314566Y-137795D01*
X313779D01*
X313385Y-137402D01*
X317321Y-137795D02*
X315746D01*
X317321Y-136221D01*
Y-135827D01*
X316927Y-135434D01*
X316140D01*
X315746Y-135827D01*
X311024Y-157795D02*
Y-155434D01*
X312204D01*
X312598Y-155827D01*
Y-156615D01*
X312204Y-157008D01*
X311024D01*
X311811D02*
X312598Y-157795D01*
X314959Y-155434D02*
X313385D01*
Y-157795D01*
X314959D01*
X313385Y-156615D02*
X314172D01*
X317321Y-155827D02*
X316927Y-155434D01*
X316140D01*
X315746Y-155827D01*
Y-156221D01*
X316140Y-156615D01*
X316927D01*
X317321Y-157008D01*
Y-157402D01*
X316927Y-157795D01*
X316140D01*
X315746Y-157402D01*
X319682Y-155434D02*
X318108D01*
Y-157795D01*
X319682D01*
X318108Y-156615D02*
X318895D01*
X320469Y-155434D02*
X322044D01*
X321256D01*
Y-157795D01*
X366403Y-54331D02*
X363779D01*
X366403Y-51707D01*
Y-51051D01*
X365747Y-50395D01*
X364436D01*
X363779Y-51051D01*
X367715Y-54331D02*
Y-51707D01*
X369027Y-50395D01*
X370339Y-51707D01*
Y-54331D01*
Y-52363D01*
X367715D01*
X311024Y-127795D02*
Y-125434D01*
X311811Y-126221D01*
X312598Y-125434D01*
Y-127795D01*
X314959Y-125827D02*
X314566Y-125434D01*
X313779D01*
X313385Y-125827D01*
Y-126221D01*
X313779Y-126615D01*
X314566D01*
X314959Y-127008D01*
Y-127402D01*
X314566Y-127795D01*
X313779D01*
X313385Y-127402D01*
X315746Y-127795D02*
X316534D01*
X316140D01*
Y-125434D01*
X315746Y-125827D01*
X312204Y-175985D02*
X311811Y-175591D01*
X311023D01*
X310630Y-175985D01*
Y-176379D01*
X311023Y-176772D01*
X311811D01*
X312204Y-177166D01*
Y-177559D01*
X311811Y-177953D01*
X311023D01*
X310630Y-177559D01*
X312991Y-175591D02*
X314566D01*
X313778D01*
Y-177953D01*
X316927Y-175591D02*
X315353D01*
Y-177953D01*
X316927D01*
X315353Y-176772D02*
X316140D01*
X317714Y-177953D02*
Y-175591D01*
X318895D01*
X319288Y-175985D01*
Y-176772D01*
X318895Y-177166D01*
X317714D01*
X345917Y-8870D02*
Y-8083D01*
Y-8477D01*
X343556D01*
X343950Y-8870D01*
X345917Y-6902D02*
X344343D01*
X343556Y-6115D01*
X344343Y-5328D01*
X345917D01*
X344737D01*
Y-6902D01*
X361024Y-167795D02*
X361811D01*
X361417D01*
Y-165434D01*
X361024Y-165827D01*
X362991Y-165434D02*
Y-167795D01*
X364172D01*
X364566Y-167402D01*
Y-167008D01*
X364172Y-166615D01*
X362991D01*
X364172D01*
X364566Y-166221D01*
Y-165827D01*
X364172Y-165434D01*
X362991D01*
X361024Y-175434D02*
Y-177008D01*
X361811Y-177795D01*
X362598Y-177008D01*
Y-175434D01*
X363385D02*
Y-177795D01*
X364566D01*
X364959Y-177402D01*
Y-175827D01*
X364566Y-175434D01*
X363385D01*
X365746D02*
Y-177795D01*
X366927D01*
X367321Y-177402D01*
Y-175827D01*
X366927Y-175434D01*
X365746D01*
X328279Y-7296D02*
Y-8870D01*
X326705Y-7296D01*
X326312D01*
X325918Y-7689D01*
Y-8477D01*
X326312Y-8870D01*
X325918Y-6509D02*
X328279D01*
Y-5328D01*
X327886Y-4934D01*
X327492D01*
X327099Y-5328D01*
Y-6509D01*
Y-5328D01*
X326705Y-4934D01*
X326312D01*
X325918Y-5328D01*
Y-6509D01*
X362713Y-186162D02*
X362319Y-185768D01*
X361532D01*
X361138Y-186162D01*
Y-187736D01*
X361532Y-188130D01*
X362319D01*
X362713Y-187736D01*
Y-186949D01*
X361926D01*
X363500Y-188130D02*
Y-185768D01*
X365074Y-188130D01*
Y-185768D01*
X365861D02*
Y-188130D01*
X367042D01*
X367436Y-187736D01*
Y-186162D01*
X367042Y-185768D01*
X365861D01*
D13*
X249305Y-152429D02*
G03*
X249305Y-152429I-787J0D01*
G01*
X54045Y-168799D02*
Y-27067D01*
X172155D01*
Y-168799D02*
Y-27067D01*
X54045Y-168799D02*
X172155D01*
D14*
X243738Y-145681D02*
G03*
X243738Y-145681I-1969J0D01*
G01*
X194019Y-114181D02*
X203519D01*
X194019Y-166284D02*
Y-114181D01*
Y-166284D02*
X203519D01*
Y-114181D01*
X333150Y-61866D02*
X360315D01*
Y-30764D01*
X333150D02*
X360315D01*
X333150Y-61866D02*
Y-30764D01*
Y-89425D02*
Y-58323D01*
X360315D01*
Y-89425D02*
Y-58323D01*
X333150Y-89425D02*
X360315D01*
X321339Y-28205D02*
X360315D01*
X321339D02*
Y-10488D01*
X360315D01*
Y-28205D02*
Y-10488D01*
X248769Y-167931D02*
Y-158431D01*
X206769D02*
X248769D01*
X206769Y-167931D02*
Y-158431D01*
Y-167931D02*
X248769D01*
D15*
X100311Y-160433D02*
Y-147314D01*
Y-153874D01*
X119990D01*
X103591Y-127635D02*
X100311Y-130915D01*
Y-137475D01*
X103591Y-140754D01*
X106871D01*
X110150Y-137475D01*
Y-130915D01*
X113430Y-127635D01*
X116710D01*
X119990Y-130915D01*
Y-137475D01*
X116710Y-140754D01*
X119990Y-88278D02*
Y-101397D01*
X106871Y-88278D01*
X103591D01*
X100311Y-91558D01*
Y-98117D01*
X103591Y-101397D01*
X119990Y-81718D02*
X106871Y-68599D01*
X119990Y-62040D02*
Y-55480D01*
Y-58760D01*
X100311D01*
X103591Y-62040D01*
X119990Y-35801D02*
X100311D01*
X110150Y-45641D01*
Y-32522D01*
M02*
