G04*
G04 #@! TF.GenerationSoftware,Altium Limited,Altium Designer,20.1.12 (249)*
G04*
G04 Layer_Physical_Order=1*
G04 Layer_Color=255*
%FSLAX25Y25*%
%MOIN*%
G70*
G04*
G04 #@! TF.SameCoordinates,A6E25834-E18E-4168-B90B-242D5B1D2A4A*
G04*
G04*
G04 #@! TF.FilePolarity,Positive*
G04*
G01*
G75*
%ADD32R,0.03937X0.03937*%
%ADD33R,0.03543X0.03937*%
%ADD34R,0.03937X0.03937*%
%ADD35R,0.02559X0.04331*%
%ADD36R,0.07087X0.10630*%
%ADD37O,0.05709X0.02165*%
%ADD38O,0.02165X0.05709*%
%ADD39R,0.03937X0.03543*%
%ADD40C,0.03500*%
%ADD41C,0.01500*%
%ADD42C,0.00600*%
%ADD43C,0.06693*%
%ADD44C,0.09843*%
%ADD45C,0.30709*%
%ADD46C,0.09055*%
%ADD47C,0.04724*%
%ADD48R,0.05906X0.05906*%
%ADD49C,0.05906*%
%ADD50C,0.13780*%
%ADD51C,0.02165*%
G36*
X352604Y-38493D02*
Y-43209D01*
X347730Y-48083D01*
X347583Y-48022D01*
X346142Y-47833D01*
X344700Y-48022D01*
X343357Y-48579D01*
X342204Y-49464D01*
X341319Y-50617D01*
X340763Y-51960D01*
X340573Y-53402D01*
X340763Y-54843D01*
X340924Y-55231D01*
X333076Y-63079D01*
X332557Y-63856D01*
X332374Y-64773D01*
X332374Y-64773D01*
Y-85671D01*
X332374Y-85671D01*
X332401Y-85806D01*
X331940Y-86052D01*
X329896Y-84008D01*
Y-59256D01*
X335544Y-53608D01*
X335544Y-53608D01*
X344312Y-44840D01*
X344700Y-45001D01*
X346142Y-45191D01*
X347583Y-45001D01*
X348926Y-44445D01*
X350079Y-43560D01*
X350964Y-42406D01*
X351521Y-41063D01*
X351711Y-39622D01*
X351521Y-38181D01*
X351466Y-38048D01*
X351882Y-37770D01*
X352604Y-38493D01*
D02*
G37*
G36*
X351865Y-20067D02*
X352176Y-20108D01*
X367604Y-35536D01*
Y-56110D01*
X347972Y-75742D01*
X347583Y-75582D01*
X346142Y-75392D01*
X344700Y-75582D01*
X343357Y-76138D01*
X342204Y-77023D01*
X341767Y-77593D01*
X341266Y-77423D01*
Y-75445D01*
X344312Y-72399D01*
X344700Y-72560D01*
X346142Y-72750D01*
X347583Y-72560D01*
X348926Y-72004D01*
X350079Y-71119D01*
X350964Y-69965D01*
X351521Y-68622D01*
X351711Y-67181D01*
X351521Y-65740D01*
X351360Y-65351D01*
X364194Y-52517D01*
X364194Y-52517D01*
X364714Y-51740D01*
X364896Y-50823D01*
X364896Y-50823D01*
Y-34917D01*
X364714Y-34000D01*
X364194Y-33223D01*
X364194Y-33223D01*
X351378Y-20407D01*
X351661Y-19983D01*
X351865Y-20067D01*
D02*
G37*
G36*
X363298Y-86142D02*
X363091Y-86642D01*
X348160D01*
X348061Y-86142D01*
X348926Y-85783D01*
X350079Y-84898D01*
X350964Y-83745D01*
X351125Y-83357D01*
X360513D01*
X363298Y-86142D01*
D02*
G37*
G36*
X247701Y-57899D02*
X250891D01*
X260624Y-67632D01*
Y-126472D01*
X260225Y-126796D01*
X259838Y-126656D01*
Y-126656D01*
X254701D01*
Y-131399D01*
X255893D01*
Y-132963D01*
X254701D01*
Y-133730D01*
X252450D01*
X252298Y-133230D01*
X252388Y-133170D01*
X252760Y-132613D01*
X252890Y-131957D01*
X252760Y-131300D01*
X252388Y-130744D01*
X252221Y-130632D01*
Y-130132D01*
X252388Y-130020D01*
X252760Y-129464D01*
X252890Y-128807D01*
X252760Y-128150D01*
X252388Y-127594D01*
X252221Y-127482D01*
Y-126982D01*
X252388Y-126871D01*
X252760Y-126314D01*
X252890Y-125657D01*
X252778Y-125092D01*
X253043Y-124592D01*
X254701D01*
Y-124706D01*
X259838D01*
Y-119963D01*
X254701D01*
Y-122757D01*
X246810D01*
X246459Y-122827D01*
X246161Y-123026D01*
X242351Y-126836D01*
X242152Y-127134D01*
X242082Y-127485D01*
Y-137338D01*
X231857D01*
X231506Y-137408D01*
X231208Y-137607D01*
X221269Y-147546D01*
X220807Y-147354D01*
Y-143388D01*
X220738Y-143037D01*
X220539Y-142739D01*
X219553Y-141754D01*
X219623Y-141405D01*
X219492Y-140749D01*
X219120Y-140192D01*
X218953Y-140081D01*
Y-139581D01*
X219120Y-139469D01*
X219492Y-138912D01*
X219623Y-138256D01*
X219492Y-137599D01*
X219120Y-137043D01*
X218953Y-136931D01*
Y-136431D01*
X219120Y-136319D01*
X219492Y-135763D01*
X219623Y-135106D01*
X219492Y-134450D01*
X219120Y-133893D01*
X218953Y-133782D01*
Y-133282D01*
X219120Y-133170D01*
X219492Y-132613D01*
X219623Y-131957D01*
X219492Y-131300D01*
X219120Y-130744D01*
X218953Y-130632D01*
Y-130132D01*
X219120Y-130020D01*
X219492Y-129464D01*
X219623Y-128807D01*
X219492Y-128150D01*
X219120Y-127594D01*
X218953Y-127482D01*
Y-126982D01*
X219120Y-126871D01*
X219492Y-126314D01*
X219623Y-125657D01*
X219492Y-125001D01*
X219120Y-124444D01*
X218564Y-124072D01*
X217907Y-123942D01*
X217512D01*
Y-114435D01*
X220686Y-111260D01*
X225128D01*
X225440Y-111469D01*
X226096Y-111599D01*
X226753Y-111469D01*
X227309Y-111097D01*
X227681Y-110540D01*
X227739Y-110249D01*
X228239Y-110299D01*
Y-110616D01*
X228344Y-111143D01*
X228643Y-111589D01*
X231027Y-113973D01*
X231027Y-113973D01*
X231473Y-114272D01*
X232000Y-114376D01*
X235623D01*
X236117Y-114871D01*
Y-117001D01*
X235617Y-117152D01*
X235557Y-117062D01*
X235001Y-116691D01*
X234344Y-116560D01*
X233688Y-116691D01*
X233131Y-117062D01*
X233019Y-117229D01*
X232519D01*
X232408Y-117062D01*
X231851Y-116691D01*
X231194Y-116560D01*
X230538Y-116691D01*
X229981Y-117062D01*
X229870Y-117229D01*
X229370D01*
X229258Y-117062D01*
X228701Y-116691D01*
X228045Y-116560D01*
X227388Y-116691D01*
X226832Y-117062D01*
X226720Y-117229D01*
X226220D01*
X226108Y-117062D01*
X225552Y-116691D01*
X224895Y-116560D01*
X224239Y-116691D01*
X223682Y-117062D01*
X223440D01*
X223247Y-116774D01*
X222558Y-116314D01*
X222246Y-116252D01*
Y-120047D01*
Y-123843D01*
X222558Y-123781D01*
X223247Y-123320D01*
X223440Y-123032D01*
X223682D01*
X224239Y-123404D01*
X224895Y-123535D01*
X225552Y-123404D01*
X226108Y-123032D01*
X226220Y-122865D01*
X226720D01*
X226832Y-123032D01*
X227388Y-123404D01*
X228045Y-123535D01*
X228701Y-123404D01*
X229258Y-123032D01*
X229370Y-122865D01*
X229870D01*
X229981Y-123032D01*
X230538Y-123404D01*
X231194Y-123535D01*
X231851Y-123404D01*
X232408Y-123032D01*
X232519Y-122865D01*
X233019D01*
X233131Y-123032D01*
X233688Y-123404D01*
X234344Y-123535D01*
X235001Y-123404D01*
X235557Y-123032D01*
X235669Y-122865D01*
X236169D01*
X236281Y-123032D01*
X236837Y-123404D01*
X237494Y-123535D01*
X238150Y-123404D01*
X238707Y-123032D01*
X238819Y-122865D01*
X239318D01*
X239430Y-123032D01*
X239987Y-123404D01*
X240643Y-123535D01*
X241300Y-123404D01*
X241857Y-123032D01*
X241968Y-122865D01*
X242468D01*
X242580Y-123032D01*
X243136Y-123404D01*
X243793Y-123535D01*
X244449Y-123404D01*
X245006Y-123032D01*
X245378Y-122476D01*
X245509Y-121819D01*
Y-120251D01*
X247126D01*
X247652Y-120146D01*
X248099Y-119848D01*
X255089Y-112858D01*
X255089Y-112857D01*
X255387Y-112411D01*
X255492Y-111884D01*
Y-109250D01*
X256487D01*
Y-104113D01*
X255492D01*
Y-103250D01*
X256487D01*
Y-98113D01*
X255492D01*
Y-97250D01*
X256487D01*
Y-92113D01*
X251744D01*
Y-97250D01*
X252739D01*
Y-98113D01*
X251350D01*
Y-101681D01*
X250881Y-101886D01*
X250588Y-101650D01*
Y-101181D01*
X247620D01*
X244651D01*
Y-103650D01*
X244962D01*
X245051Y-104113D01*
X245051D01*
Y-109250D01*
X247848D01*
X248980Y-110381D01*
X249011Y-110540D01*
X249383Y-111097D01*
X249940Y-111469D01*
X250596Y-111599D01*
X251253Y-111469D01*
X251810Y-111097D01*
X252181Y-110540D01*
X252239Y-110249D01*
X252739Y-110299D01*
Y-111314D01*
X246555Y-117498D01*
X245297D01*
X245006Y-117062D01*
X244449Y-116691D01*
X243793Y-116560D01*
X243136Y-116691D01*
X242580Y-117062D01*
X242520Y-117152D01*
X242020Y-117001D01*
Y-113927D01*
X242973Y-112973D01*
X242973Y-112973D01*
X243272Y-112527D01*
X243376Y-112000D01*
X243376Y-112000D01*
Y-109250D01*
X243987D01*
Y-104113D01*
X243376D01*
Y-103250D01*
X243987D01*
Y-98113D01*
X243376D01*
Y-97250D01*
X243987D01*
Y-92113D01*
X239244D01*
Y-97250D01*
X240623D01*
Y-98113D01*
X238850D01*
Y-101681D01*
X238381Y-101886D01*
X238088Y-101650D01*
Y-101181D01*
X235120D01*
Y-100181D01*
X238088D01*
Y-97713D01*
X237384D01*
X237295Y-97250D01*
X237295Y-97213D01*
Y-92113D01*
X236299D01*
Y-89598D01*
X237927Y-87970D01*
X238342Y-88142D01*
X239269Y-88265D01*
X240197Y-88142D01*
X241061Y-87784D01*
X241803Y-87215D01*
X242373Y-86473D01*
X242731Y-85609D01*
X242853Y-84681D01*
X242731Y-83754D01*
X242373Y-82889D01*
X241803Y-82147D01*
X241061Y-81578D01*
X240197Y-81220D01*
X239269Y-81098D01*
X238342Y-81220D01*
X237478Y-81578D01*
X236735Y-82147D01*
X236166Y-82889D01*
X235808Y-83754D01*
X235686Y-84681D01*
X235808Y-85609D01*
X235980Y-86024D01*
X233949Y-88054D01*
X233651Y-88501D01*
X233546Y-89028D01*
Y-92113D01*
X232551D01*
Y-97213D01*
X232551Y-97250D01*
X232462Y-97713D01*
X232151D01*
X231987Y-98113D01*
X230992D01*
Y-97250D01*
X231987D01*
Y-92113D01*
X227244D01*
Y-97250D01*
X228239D01*
Y-98113D01*
X226850D01*
Y-101681D01*
X226381Y-101886D01*
X226088Y-101650D01*
Y-101181D01*
X223120D01*
X220151D01*
Y-103650D01*
X220462D01*
X220551Y-104113D01*
X220551D01*
Y-108507D01*
X220116D01*
X219589Y-108612D01*
X219143Y-108911D01*
X219143Y-108911D01*
X215162Y-112891D01*
X214864Y-113338D01*
X214759Y-113865D01*
Y-123942D01*
X214364D01*
X213707Y-124072D01*
X213395Y-124281D01*
X210838D01*
Y-122262D01*
X207700D01*
X207464Y-121969D01*
X207669Y-121500D01*
X207769D01*
Y-119032D01*
X205301D01*
Y-119373D01*
X204801Y-119637D01*
X204366Y-119551D01*
X202667D01*
X202614Y-119151D01*
X202217Y-118191D01*
X201584Y-117367D01*
X200760Y-116734D01*
X200146Y-116480D01*
Y-95801D01*
X228570Y-67376D01*
X235801D01*
X236328Y-67272D01*
X236774Y-66973D01*
X243577Y-60171D01*
X245389D01*
Y-56707D01*
X247701D01*
Y-57899D01*
D02*
G37*
G36*
X305644Y-112652D02*
X305361Y-113076D01*
X304782Y-112836D01*
X303752Y-112701D01*
X302722Y-112836D01*
X301762Y-113234D01*
X300937Y-113866D01*
X300305Y-114691D01*
X299907Y-115651D01*
X299771Y-116681D01*
X299907Y-117711D01*
X300305Y-118671D01*
X300937Y-119496D01*
X301762Y-120128D01*
X302722Y-120526D01*
X303752Y-120662D01*
X304782Y-120526D01*
X305742Y-120128D01*
X305832Y-120059D01*
X316882Y-131109D01*
Y-137861D01*
X316420Y-138052D01*
X307130Y-128761D01*
X307199Y-128671D01*
X307597Y-127711D01*
X307733Y-126681D01*
X307597Y-125651D01*
X307199Y-124691D01*
X306567Y-123866D01*
X305742Y-123234D01*
X304782Y-122836D01*
X303752Y-122701D01*
X302722Y-122836D01*
X301762Y-123234D01*
X300937Y-123866D01*
X300305Y-124691D01*
X299907Y-125651D01*
X299771Y-126681D01*
X299907Y-127711D01*
X300305Y-128671D01*
X300937Y-129496D01*
X301762Y-130128D01*
X302722Y-130526D01*
X303752Y-130662D01*
X304782Y-130526D01*
X305742Y-130128D01*
X305832Y-130059D01*
X315682Y-139909D01*
Y-146660D01*
X315220Y-146852D01*
X307130Y-138761D01*
X307199Y-138671D01*
X307597Y-137711D01*
X307733Y-136681D01*
X307597Y-135651D01*
X307199Y-134691D01*
X306567Y-133867D01*
X305742Y-133234D01*
X304782Y-132836D01*
X303752Y-132701D01*
X302722Y-132836D01*
X301762Y-133234D01*
X300937Y-133867D01*
X300305Y-134691D01*
X299907Y-135651D01*
X299771Y-136681D01*
X299907Y-137711D01*
X300305Y-138671D01*
X300937Y-139496D01*
X301762Y-140128D01*
X302722Y-140526D01*
X303752Y-140662D01*
X304782Y-140526D01*
X305742Y-140128D01*
X305832Y-140059D01*
X314482Y-148709D01*
Y-155461D01*
X314020Y-155652D01*
X307130Y-148761D01*
X307199Y-148671D01*
X307597Y-147711D01*
X307733Y-146681D01*
X307597Y-145651D01*
X307199Y-144691D01*
X306567Y-143867D01*
X305742Y-143234D01*
X304782Y-142836D01*
X303752Y-142701D01*
X302722Y-142836D01*
X301762Y-143234D01*
X300937Y-143867D01*
X300305Y-144691D01*
X299907Y-145651D01*
X299771Y-146681D01*
X299907Y-147711D01*
X300305Y-148671D01*
X300937Y-149496D01*
X301762Y-150128D01*
X302722Y-150526D01*
X303752Y-150662D01*
X304782Y-150526D01*
X305742Y-150128D01*
X305832Y-150059D01*
X313282Y-157509D01*
Y-164260D01*
X312820Y-164452D01*
X307130Y-158761D01*
X307199Y-158671D01*
X307597Y-157711D01*
X307733Y-156681D01*
X307597Y-155651D01*
X307199Y-154691D01*
X306567Y-153867D01*
X305742Y-153234D01*
X304782Y-152836D01*
X303752Y-152701D01*
X302722Y-152836D01*
X301762Y-153234D01*
X300937Y-153867D01*
X300305Y-154691D01*
X299907Y-155651D01*
X299771Y-156681D01*
X299907Y-157711D01*
X300305Y-158671D01*
X300937Y-159496D01*
X301762Y-160128D01*
X302722Y-160526D01*
X303752Y-160662D01*
X304782Y-160526D01*
X305742Y-160128D01*
X305832Y-160059D01*
X312082Y-166309D01*
Y-187120D01*
X309192Y-190010D01*
X306674D01*
X306514Y-189536D01*
X306567Y-189496D01*
X307199Y-188671D01*
X307597Y-187711D01*
X307733Y-186681D01*
X307597Y-185651D01*
X307199Y-184691D01*
X306567Y-183867D01*
X305742Y-183234D01*
X304782Y-182836D01*
X303752Y-182701D01*
X302722Y-182836D01*
X301762Y-183234D01*
X301672Y-183303D01*
X296448Y-178080D01*
X296639Y-177618D01*
X299895D01*
X299907Y-177711D01*
X300305Y-178671D01*
X300937Y-179496D01*
X301762Y-180128D01*
X302722Y-180526D01*
X303752Y-180662D01*
X304782Y-180526D01*
X305742Y-180128D01*
X306567Y-179496D01*
X307199Y-178671D01*
X307597Y-177711D01*
X307733Y-176681D01*
X307597Y-175651D01*
X307199Y-174691D01*
X306567Y-173866D01*
X305742Y-173234D01*
X304782Y-172836D01*
X303752Y-172701D01*
X302722Y-172836D01*
X301762Y-173234D01*
X300937Y-173866D01*
X300305Y-174691D01*
X299907Y-175651D01*
X299890Y-175782D01*
X295669D01*
X295477Y-175320D01*
X301144Y-169654D01*
X301762Y-170128D01*
X302722Y-170526D01*
X303752Y-170662D01*
X304782Y-170526D01*
X305742Y-170128D01*
X306567Y-169496D01*
X307199Y-168671D01*
X307597Y-167711D01*
X307733Y-166681D01*
X307597Y-165651D01*
X307199Y-164691D01*
X306567Y-163866D01*
X305742Y-163234D01*
X304782Y-162836D01*
X303752Y-162701D01*
X302722Y-162836D01*
X301762Y-163234D01*
X300937Y-163866D01*
X300305Y-164691D01*
X299907Y-165651D01*
X299771Y-166681D01*
X299907Y-167711D01*
X300078Y-168124D01*
X293620Y-174582D01*
X225880D01*
X218918Y-167620D01*
Y-165447D01*
X219418Y-165296D01*
X219955Y-165996D01*
X220779Y-166628D01*
X221739Y-167026D01*
X222769Y-167162D01*
X223799Y-167026D01*
X224413Y-166772D01*
X226615Y-168973D01*
X226615Y-168973D01*
X227062Y-169272D01*
X227588Y-169376D01*
X258000D01*
X258527Y-169272D01*
X258973Y-168973D01*
X265942Y-162005D01*
X266240Y-161558D01*
X266345Y-161031D01*
Y-149602D01*
X266973Y-148973D01*
X267272Y-148527D01*
X267376Y-148000D01*
X267376Y-148000D01*
Y-138000D01*
X267272Y-137473D01*
X266973Y-137027D01*
X264505Y-134558D01*
X264058Y-134260D01*
X263531Y-134155D01*
X259838D01*
Y-132963D01*
X258646D01*
Y-131399D01*
X259838D01*
Y-129889D01*
X260609D01*
X261136Y-129784D01*
X261582Y-129485D01*
X262973Y-128095D01*
X263272Y-127648D01*
X263376Y-127121D01*
X263376Y-127121D01*
Y-71038D01*
X263838Y-70846D01*
X305644Y-112652D01*
D02*
G37*
G36*
X219500Y-11000D02*
Y-21500D01*
X221862Y-23862D01*
X221801Y-24362D01*
X221801Y-24418D01*
Y-26831D01*
X227738D01*
Y-24500D01*
X227738Y-24362D01*
X228070Y-24000D01*
X249500D01*
X256500Y-31000D01*
Y-37500D01*
X329500Y-110500D01*
X355000D01*
X359500Y-115000D01*
Y-118500D01*
X357000Y-121000D01*
X355990D01*
X355890Y-120500D01*
X355944Y-120478D01*
X356852Y-119781D01*
X357549Y-118873D01*
X357986Y-117816D01*
X358070Y-117181D01*
X353752D01*
Y-116681D01*
D01*
Y-117181D01*
X349434D01*
X349517Y-117816D01*
X349955Y-118873D01*
X350652Y-119781D01*
X351560Y-120478D01*
X351614Y-120500D01*
X351514Y-121000D01*
X347500D01*
X346500Y-120000D01*
X345393D01*
X344969Y-119819D01*
X344969Y-119500D01*
Y-117350D01*
X342000D01*
X339032D01*
Y-119500D01*
X339032Y-119819D01*
X338607Y-120000D01*
X327500D01*
X249000Y-41500D01*
X227500D01*
X226000Y-43000D01*
Y-50500D01*
X226701Y-51201D01*
Y-52100D01*
X227474D01*
X227687Y-52370D01*
X227474Y-52862D01*
X226301D01*
Y-55331D01*
X232238D01*
Y-53000D01*
X232238Y-52862D01*
X232571Y-52500D01*
X237500D01*
X239000Y-54000D01*
X239000Y-60854D01*
X238354Y-61500D01*
X227500D01*
X224500Y-58500D01*
X209500Y-58500D01*
X206500Y-55500D01*
Y-44000D01*
X208500Y-42000D01*
X216500D01*
X219000Y-39500D01*
Y-29000D01*
X216000Y-26000D01*
X210000Y-26000D01*
X207500Y-23500D01*
Y-10500D01*
X209500Y-8500D01*
X217000D01*
X219500Y-11000D01*
D02*
G37*
G36*
X381890Y-196850D02*
X312400D01*
X312244Y-196461D01*
X312235Y-196350D01*
X313340Y-195246D01*
X313340Y-195246D01*
X313691Y-194895D01*
X313691Y-194895D01*
X314043Y-194543D01*
X314043Y-194543D01*
X318449Y-190137D01*
X318648Y-189839D01*
X318718Y-189488D01*
Y-130729D01*
X318648Y-130378D01*
X318449Y-130080D01*
X307130Y-118761D01*
X307199Y-118671D01*
X307597Y-117711D01*
X307733Y-116681D01*
X307597Y-115651D01*
X307357Y-115072D01*
X307781Y-114789D01*
X331123Y-138132D01*
Y-155429D01*
X331228Y-155956D01*
X331527Y-156402D01*
X350161Y-175037D01*
X349907Y-175651D01*
X349771Y-176681D01*
X349907Y-177711D01*
X350305Y-178671D01*
X350937Y-179496D01*
X351762Y-180128D01*
X352722Y-180526D01*
X353752Y-180662D01*
X354782Y-180526D01*
X355742Y-180128D01*
X356567Y-179496D01*
X357199Y-178671D01*
X357597Y-177711D01*
X357733Y-176681D01*
X357597Y-175651D01*
X357199Y-174691D01*
X356567Y-173866D01*
X355742Y-173234D01*
X354782Y-172836D01*
X353752Y-172701D01*
X352722Y-172836D01*
X352108Y-173091D01*
X333876Y-154859D01*
Y-137562D01*
X333876Y-137561D01*
X333772Y-137035D01*
X333473Y-136588D01*
X263377Y-66492D01*
X263135Y-66330D01*
X262973Y-66088D01*
X262973Y-66088D01*
X252838Y-55953D01*
Y-52762D01*
X247701D01*
Y-53954D01*
X244699D01*
X244698Y-53954D01*
X244172Y-54059D01*
X243725Y-54357D01*
X243442Y-54640D01*
X241630D01*
Y-58224D01*
X240111Y-59743D01*
X239649Y-59552D01*
X239649Y-54000D01*
X239459Y-53541D01*
X237959Y-52041D01*
X237500Y-51851D01*
X232571D01*
X232464Y-51746D01*
X232238Y-51442D01*
Y-50032D01*
X229269D01*
Y-49531D01*
X228769D01*
Y-46563D01*
X226649D01*
Y-43269D01*
X227769Y-42149D01*
X248731D01*
X252183Y-45601D01*
X251991Y-46063D01*
X250769D01*
Y-48531D01*
X253238D01*
Y-47309D01*
X253700Y-47118D01*
X327041Y-120459D01*
X327500Y-120649D01*
X338607D01*
X338922Y-120872D01*
X339032Y-121027D01*
Y-122650D01*
X342000D01*
Y-123150D01*
X342500D01*
Y-126118D01*
X344969D01*
Y-124526D01*
X348799D01*
X349606Y-125333D01*
X349517Y-125547D01*
X349434Y-126181D01*
X353252D01*
Y-122363D01*
X352617Y-122447D01*
X351560Y-122885D01*
X351272Y-123106D01*
X350342Y-122176D01*
X350302Y-122149D01*
X350454Y-121649D01*
X351514D01*
X351689Y-121577D01*
X351875Y-121540D01*
X351912Y-121485D01*
X351974Y-121459D01*
X352046Y-121284D01*
X352151Y-121127D01*
X352206Y-120853D01*
X352671Y-120537D01*
X352722Y-120526D01*
X353752Y-120662D01*
X354782Y-120526D01*
X354833Y-120537D01*
X355298Y-120853D01*
X355353Y-121127D01*
X355458Y-121284D01*
X355530Y-121459D01*
X355592Y-121485D01*
X355629Y-121540D01*
X355815Y-121577D01*
X355990Y-121649D01*
X357000D01*
X357459Y-121459D01*
X359804Y-119114D01*
X360304Y-119322D01*
Y-126741D01*
X358032Y-129013D01*
X357608Y-128729D01*
X357986Y-127816D01*
X358070Y-127181D01*
X354252D01*
Y-130999D01*
X354887Y-130916D01*
X355800Y-130537D01*
X356083Y-130961D01*
X354275Y-132770D01*
X353752Y-132701D01*
X352722Y-132836D01*
X351762Y-133234D01*
X350937Y-133867D01*
X350305Y-134691D01*
X349907Y-135651D01*
X349771Y-136681D01*
X349907Y-137711D01*
X350305Y-138671D01*
X350937Y-139496D01*
X351762Y-140128D01*
X352722Y-140526D01*
X353752Y-140662D01*
X354782Y-140526D01*
X355742Y-140128D01*
X356567Y-139496D01*
X357199Y-138671D01*
X357597Y-137711D01*
X357733Y-136681D01*
X357664Y-136158D01*
X363904Y-129918D01*
X364404Y-130125D01*
Y-132641D01*
X354275Y-142770D01*
X353752Y-142701D01*
X352722Y-142836D01*
X351762Y-143234D01*
X350937Y-143867D01*
X350305Y-144691D01*
X349907Y-145651D01*
X349771Y-146681D01*
X349907Y-147711D01*
X350305Y-148671D01*
X350937Y-149496D01*
X351762Y-150128D01*
X352722Y-150526D01*
X353752Y-150662D01*
X354782Y-150526D01*
X355742Y-150128D01*
X356567Y-149496D01*
X357199Y-148671D01*
X357597Y-147711D01*
X357733Y-146681D01*
X357664Y-146158D01*
X368004Y-135818D01*
X368504Y-136025D01*
Y-138541D01*
X354275Y-152769D01*
X353752Y-152701D01*
X352722Y-152836D01*
X351762Y-153234D01*
X350937Y-153867D01*
X350305Y-154691D01*
X349907Y-155651D01*
X349771Y-156681D01*
X349907Y-157711D01*
X350305Y-158671D01*
X350937Y-159496D01*
X351762Y-160128D01*
X352722Y-160526D01*
X353752Y-160662D01*
X354782Y-160526D01*
X355742Y-160128D01*
X356567Y-159496D01*
X357199Y-158671D01*
X357597Y-157711D01*
X357733Y-156681D01*
X357664Y-156158D01*
X372104Y-141718D01*
X372604Y-141925D01*
Y-145554D01*
X355164Y-162994D01*
X354782Y-162836D01*
X353752Y-162701D01*
X352722Y-162836D01*
X351762Y-163234D01*
X350937Y-163866D01*
X350305Y-164691D01*
X349907Y-165651D01*
X349771Y-166681D01*
X349907Y-167711D01*
X350305Y-168671D01*
X350937Y-169496D01*
X351762Y-170128D01*
X352722Y-170526D01*
X353752Y-170662D01*
X354782Y-170526D01*
X355742Y-170128D01*
X356567Y-169496D01*
X357199Y-168671D01*
X357597Y-167711D01*
X357653Y-167281D01*
X376694Y-148241D01*
X376694Y-148241D01*
X377214Y-147463D01*
X377396Y-146546D01*
Y-94455D01*
X377396Y-94455D01*
X377214Y-93538D01*
X376694Y-92761D01*
X376694Y-92761D01*
X363199Y-79266D01*
X362422Y-78747D01*
X361505Y-78565D01*
X361505Y-78565D01*
X352580D01*
X352388Y-78103D01*
X371694Y-58797D01*
X372214Y-58019D01*
X372396Y-57102D01*
X372396Y-57102D01*
Y-34543D01*
X372396Y-34543D01*
X372214Y-33626D01*
X371694Y-32849D01*
X355565Y-16720D01*
X355524Y-16408D01*
X355225Y-15687D01*
X354750Y-15068D01*
X354132Y-14594D01*
X353411Y-14295D01*
X352638Y-14193D01*
X351865Y-14295D01*
X351144Y-14594D01*
X350525Y-15068D01*
X350050Y-15687D01*
X349752Y-16408D01*
X349650Y-17181D01*
X349752Y-17954D01*
X349836Y-18158D01*
X349412Y-18441D01*
X347691Y-16720D01*
X347650Y-16408D01*
X347351Y-15687D01*
X346877Y-15068D01*
X346258Y-14594D01*
X345537Y-14295D01*
X344764Y-14193D01*
X343990Y-14295D01*
X343270Y-14594D01*
X342651Y-15068D01*
X342176Y-15687D01*
X341878Y-16408D01*
X341776Y-17181D01*
X341878Y-17954D01*
X342176Y-18675D01*
X342651Y-19294D01*
X343270Y-19769D01*
X343990Y-20067D01*
X344302Y-20108D01*
X360104Y-35910D01*
Y-49830D01*
X347972Y-61963D01*
X347583Y-61802D01*
X346142Y-61612D01*
X344700Y-61802D01*
X343357Y-62358D01*
X342204Y-63243D01*
X341319Y-64397D01*
X340763Y-65740D01*
X340573Y-67181D01*
X340763Y-68622D01*
X340924Y-69011D01*
X337667Y-72268D01*
X337167Y-72061D01*
Y-65765D01*
X344312Y-58620D01*
X344700Y-58781D01*
X346142Y-58970D01*
X347583Y-58781D01*
X348926Y-58224D01*
X350079Y-57339D01*
X350964Y-56186D01*
X351521Y-54843D01*
X351711Y-53402D01*
X351521Y-51960D01*
X351260Y-51330D01*
X356694Y-45896D01*
X356694Y-45896D01*
X357214Y-45119D01*
X357396Y-44202D01*
X357396Y-44202D01*
Y-37500D01*
X357396Y-37500D01*
X357214Y-36583D01*
X356694Y-35806D01*
X356694Y-35806D01*
X346694Y-25806D01*
X345917Y-25286D01*
X345000Y-25104D01*
X345000Y-25104D01*
X343493D01*
X339520Y-21132D01*
Y-18572D01*
X339776Y-17954D01*
X339878Y-17181D01*
X339776Y-16408D01*
X339477Y-15687D01*
X339002Y-15068D01*
X338384Y-14594D01*
X337663Y-14295D01*
X336890Y-14193D01*
X336117Y-14295D01*
X335396Y-14594D01*
X334777Y-15068D01*
X334302Y-15687D01*
X334004Y-16408D01*
X333902Y-17181D01*
X334004Y-17954D01*
X334302Y-18675D01*
X334728Y-19230D01*
Y-22124D01*
X334728Y-22124D01*
X334910Y-23041D01*
X335430Y-23818D01*
X340806Y-29194D01*
X341583Y-29714D01*
X342500Y-29896D01*
X342500Y-29896D01*
X344007D01*
X347994Y-33882D01*
X347716Y-34298D01*
X347583Y-34243D01*
X346142Y-34053D01*
X344700Y-34243D01*
X344312Y-34404D01*
X331646Y-21738D01*
Y-18572D01*
X331902Y-17954D01*
X332003Y-17181D01*
X331902Y-16408D01*
X331603Y-15687D01*
X331128Y-15068D01*
X330510Y-14594D01*
X329789Y-14295D01*
X329016Y-14193D01*
X328242Y-14295D01*
X327522Y-14594D01*
X326903Y-15068D01*
X326428Y-15687D01*
X326130Y-16408D01*
X326028Y-17181D01*
X326130Y-17954D01*
X326428Y-18675D01*
X326854Y-19230D01*
Y-22730D01*
X326854Y-22730D01*
X327036Y-23647D01*
X327556Y-24425D01*
X340924Y-37792D01*
X340763Y-38181D01*
X340573Y-39622D01*
X340763Y-41063D01*
X340924Y-41452D01*
X332156Y-50220D01*
X332156Y-50220D01*
X332156Y-50220D01*
X325806Y-56569D01*
X325286Y-57347D01*
X325104Y-58264D01*
X325104Y-58264D01*
Y-85000D01*
X325104Y-85000D01*
X325286Y-85917D01*
X325806Y-86694D01*
X338306Y-99194D01*
X339083Y-99714D01*
X340000Y-99896D01*
X340000Y-99896D01*
X359657D01*
X360304Y-100543D01*
Y-114178D01*
X359804Y-114385D01*
X355459Y-110041D01*
X355000Y-109851D01*
X329769D01*
X257149Y-37231D01*
Y-31000D01*
X256959Y-30541D01*
X249959Y-23541D01*
X249500Y-23351D01*
X228070D01*
X227964Y-23246D01*
X227738Y-22942D01*
Y-21531D01*
X221801D01*
Y-22229D01*
X221339Y-22420D01*
X220149Y-21231D01*
Y-11000D01*
X219959Y-10541D01*
X217459Y-8041D01*
X217000Y-7851D01*
X209500D01*
X209041Y-8041D01*
X207041Y-10041D01*
X206851Y-10500D01*
Y-23500D01*
X207041Y-23959D01*
X209541Y-26459D01*
X210000Y-26649D01*
X215587Y-26649D01*
X215755Y-26866D01*
X215511Y-27366D01*
X213628D01*
Y-33681D01*
Y-39996D01*
X216932D01*
X217124Y-40458D01*
X216231Y-41351D01*
X208500D01*
X208041Y-41541D01*
X206041Y-43541D01*
X205851Y-44000D01*
Y-55500D01*
X206041Y-55959D01*
X208948Y-58866D01*
X208833Y-59303D01*
X208794Y-59366D01*
X208584D01*
Y-65181D01*
X217671D01*
Y-59649D01*
X217671Y-59366D01*
X218081Y-59149D01*
X224231D01*
X227041Y-61959D01*
X227500Y-62149D01*
X237052D01*
X237243Y-62611D01*
X235231Y-64624D01*
X228000D01*
X227473Y-64728D01*
X227027Y-65027D01*
X197796Y-94257D01*
X197498Y-94704D01*
X197393Y-95231D01*
Y-116480D01*
X196779Y-116734D01*
X195955Y-117367D01*
X195322Y-118191D01*
X194924Y-119151D01*
X194789Y-120181D01*
X194924Y-121211D01*
X195322Y-122171D01*
X195955Y-122996D01*
X196008Y-123037D01*
X195847Y-123510D01*
X194376D01*
X194048Y-123575D01*
X193933Y-122995D01*
X193561Y-122439D01*
X193005Y-122067D01*
X192348Y-121936D01*
X191692Y-122067D01*
X191491Y-121984D01*
X191450Y-121777D01*
X191078Y-121221D01*
X190522Y-120849D01*
X189865Y-120718D01*
X189209Y-120849D01*
X188652Y-121221D01*
X188280Y-121777D01*
X188150Y-122434D01*
X188280Y-123091D01*
X188652Y-123647D01*
X188672Y-123660D01*
X188710Y-124204D01*
X181457Y-131457D01*
X181457Y-131457D01*
X181105Y-131808D01*
X181105Y-131808D01*
X180754Y-132160D01*
X180754Y-132160D01*
X180403Y-132511D01*
X180403Y-132511D01*
X180051Y-132863D01*
X179852Y-133161D01*
X179782Y-133512D01*
Y-165488D01*
X179852Y-165839D01*
X180051Y-166137D01*
X180403Y-166489D01*
X180403Y-166489D01*
X180754Y-166840D01*
X180754Y-166840D01*
X181105Y-167192D01*
X181105Y-167192D01*
X181457Y-167543D01*
X181457Y-167543D01*
X200563Y-186649D01*
X200861Y-186848D01*
X201212Y-186918D01*
X257332D01*
X264957Y-194543D01*
X264957Y-194543D01*
X265308Y-194895D01*
X265308Y-194895D01*
X265660Y-195246D01*
X265660Y-195246D01*
X266012Y-195597D01*
X266012Y-195597D01*
X266764Y-196350D01*
X266756Y-196461D01*
X266600Y-196850D01*
X141500D01*
X141500Y-0D01*
X381890Y0D01*
X381890Y-196850D01*
D02*
G37*
G36*
X205806Y-132510D02*
X212156Y-138860D01*
X212454Y-139059D01*
X212805Y-139129D01*
X212923D01*
X213151Y-139469D01*
X213318Y-139581D01*
Y-140081D01*
X213151Y-140192D01*
X212779Y-140749D01*
X212673Y-141283D01*
X212323Y-141455D01*
X212162Y-141480D01*
X202403Y-131720D01*
X202614Y-131211D01*
X202750Y-130181D01*
X202741Y-130115D01*
X203189Y-129894D01*
X205806Y-132510D01*
D02*
G37*
G36*
X196373Y-127045D02*
X195955Y-127366D01*
X195322Y-128191D01*
X194924Y-129151D01*
X194789Y-130181D01*
X194924Y-131211D01*
X195322Y-132171D01*
X195955Y-132996D01*
X196779Y-133628D01*
X197739Y-134026D01*
X198769Y-134162D01*
X199800Y-134026D01*
X200760Y-133628D01*
X201301Y-133213D01*
X212649Y-144562D01*
X212779Y-145212D01*
X213151Y-145768D01*
X213318Y-145880D01*
Y-146380D01*
X213151Y-146492D01*
X212953Y-146787D01*
X206085D01*
X201892Y-142594D01*
X202217Y-142171D01*
X202614Y-141211D01*
X202750Y-140181D01*
X202614Y-139151D01*
X202217Y-138191D01*
X201584Y-137366D01*
X200760Y-136734D01*
X199800Y-136336D01*
X198769Y-136201D01*
X197739Y-136336D01*
X196779Y-136734D01*
X195955Y-137366D01*
X195322Y-138191D01*
X194924Y-139151D01*
X194789Y-140181D01*
X194924Y-141211D01*
X195322Y-142171D01*
X195955Y-142996D01*
X196779Y-143628D01*
X197739Y-144026D01*
X198769Y-144162D01*
X199800Y-144026D01*
X200456Y-143754D01*
X201257Y-144555D01*
X201066Y-145017D01*
X189604D01*
X189253Y-145087D01*
X188955Y-145286D01*
X185680Y-148562D01*
X185218Y-148370D01*
Y-135383D01*
X189543Y-131057D01*
X190361D01*
X190713Y-130987D01*
X191010Y-130788D01*
X195254Y-126545D01*
X196204D01*
X196373Y-127045D01*
D02*
G37*
G36*
X254701Y-138100D02*
X259838D01*
Y-136908D01*
X262961D01*
X264623Y-138570D01*
Y-147430D01*
X264398Y-147655D01*
X259838D01*
Y-146463D01*
X254701D01*
Y-147655D01*
X253252D01*
X252788Y-147192D01*
X252760Y-147048D01*
X252388Y-146492D01*
X252221Y-146380D01*
Y-145880D01*
X252388Y-145768D01*
X252760Y-145212D01*
X252890Y-144555D01*
X252760Y-143899D01*
X252388Y-143342D01*
X252221Y-143230D01*
Y-142730D01*
X252388Y-142619D01*
X252760Y-142062D01*
X252890Y-141405D01*
X252760Y-140749D01*
X252388Y-140192D01*
X252221Y-140081D01*
Y-139581D01*
X252388Y-139469D01*
X252760Y-138912D01*
X252890Y-138256D01*
X252760Y-137599D01*
X252388Y-137043D01*
X252298Y-136983D01*
X252450Y-136483D01*
X254701D01*
Y-138100D01*
D02*
G37*
G36*
X229981Y-156300D02*
X230538Y-156672D01*
X231194Y-156802D01*
X231851Y-156672D01*
X232408Y-156300D01*
X232468Y-156210D01*
X232968Y-156362D01*
Y-159027D01*
X232769Y-159201D01*
X231739Y-159336D01*
X230779Y-159734D01*
X229955Y-160366D01*
X229322Y-161191D01*
X228924Y-162151D01*
X228789Y-163181D01*
X228924Y-164211D01*
X229322Y-165171D01*
X229955Y-165996D01*
X230156Y-166150D01*
X229995Y-166624D01*
X228158D01*
X226360Y-164825D01*
X226614Y-164211D01*
X226750Y-163181D01*
X226614Y-162151D01*
X226217Y-161191D01*
X225584Y-160366D01*
X224760Y-159734D01*
X224646Y-159687D01*
X224746Y-159187D01*
X224862D01*
X225213Y-159117D01*
X225511Y-158918D01*
X227696Y-156733D01*
X228045Y-156802D01*
X228701Y-156672D01*
X229258Y-156300D01*
X229370Y-156133D01*
X229870D01*
X229981Y-156300D01*
D02*
G37*
G36*
X246418Y-139469D02*
X246585Y-139581D01*
Y-140081D01*
X246418Y-140192D01*
X246046Y-140749D01*
X245916Y-141405D01*
X246046Y-142062D01*
X246418Y-142619D01*
X246585Y-142730D01*
Y-143230D01*
X246418Y-143342D01*
X246046Y-143899D01*
X245916Y-144555D01*
X246046Y-145212D01*
X246418Y-145768D01*
X246585Y-145880D01*
Y-146380D01*
X246418Y-146492D01*
X246046Y-147048D01*
X245916Y-147705D01*
X246046Y-148361D01*
X246418Y-148918D01*
X246975Y-149290D01*
X247632Y-149420D01*
X251124D01*
X251708Y-150005D01*
X251708Y-150005D01*
X252155Y-150303D01*
X252682Y-150408D01*
X252682Y-150408D01*
X254701D01*
Y-151600D01*
X259838D01*
Y-150408D01*
X263592D01*
Y-160461D01*
X257430Y-166624D01*
X245544D01*
X245383Y-166150D01*
X245584Y-165996D01*
X246217Y-165171D01*
X246614Y-164211D01*
X246750Y-163181D01*
X246614Y-162151D01*
X246217Y-161191D01*
X245584Y-160366D01*
X244759Y-159734D01*
X243799Y-159336D01*
X242769Y-159201D01*
X241739Y-159336D01*
X241125Y-159590D01*
X238870Y-157335D01*
Y-156362D01*
X239370Y-156210D01*
X239430Y-156300D01*
X239987Y-156672D01*
X240643Y-156802D01*
X241300Y-156672D01*
X241856Y-156300D01*
X242099D01*
X242291Y-156588D01*
X242980Y-157048D01*
X243293Y-157111D01*
Y-153315D01*
Y-149519D01*
X242980Y-149582D01*
X242291Y-150042D01*
X242099Y-150330D01*
X241856D01*
X241300Y-149958D01*
X240643Y-149828D01*
X239987Y-149958D01*
X239430Y-150330D01*
X239318Y-150497D01*
X238819D01*
X238707Y-150330D01*
X238150Y-149958D01*
X237494Y-149828D01*
X236837Y-149958D01*
X236281Y-150330D01*
X236169Y-150497D01*
X235669D01*
X235557Y-150330D01*
X235001Y-149958D01*
X234344Y-149828D01*
X233688Y-149958D01*
X233131Y-150330D01*
X233019Y-150497D01*
X232519D01*
X232408Y-150330D01*
X231851Y-149958D01*
X231194Y-149828D01*
X230538Y-149958D01*
X229981Y-150330D01*
X229870Y-150497D01*
X229370D01*
X229258Y-150330D01*
X228701Y-149958D01*
X228045Y-149828D01*
X227388Y-149958D01*
X226832Y-150330D01*
X226720Y-150497D01*
X226220D01*
X226108Y-150330D01*
X225552Y-149958D01*
X224895Y-149828D01*
X224239Y-149958D01*
X223682Y-150330D01*
X223570Y-150497D01*
X223071D01*
X222959Y-150330D01*
X222402Y-149958D01*
X222200Y-149918D01*
X222035Y-149375D01*
X232237Y-139173D01*
X246221D01*
X246418Y-139469D01*
D02*
G37*
G36*
X213269Y-167499D02*
X213904Y-167416D01*
X214961Y-166978D01*
X215869Y-166281D01*
X216566Y-165373D01*
X216582Y-165333D01*
X217082Y-165433D01*
Y-168000D01*
X217152Y-168351D01*
X217351Y-168649D01*
X224023Y-175320D01*
X223831Y-175782D01*
X219277D01*
X211322Y-167827D01*
X211606Y-167404D01*
X211635Y-167416D01*
X212269Y-167499D01*
Y-163181D01*
X213269D01*
Y-167499D01*
D02*
G37*
G36*
X196008Y-147326D02*
X195955Y-147366D01*
X195322Y-148191D01*
X194924Y-149151D01*
X194789Y-150181D01*
X194924Y-151211D01*
X195322Y-152171D01*
X195955Y-152996D01*
X196779Y-153628D01*
X197739Y-154026D01*
X198769Y-154162D01*
X199800Y-154026D01*
X200760Y-153628D01*
X201584Y-152996D01*
X202217Y-152171D01*
X202368Y-151805D01*
X219225D01*
X219335Y-151783D01*
X219688Y-152104D01*
X219732Y-152203D01*
X219673Y-152397D01*
X213685D01*
X213334Y-152467D01*
X213036Y-152666D01*
X205351Y-160351D01*
X205152Y-160649D01*
X205082Y-161000D01*
Y-165500D01*
X205152Y-165851D01*
X205351Y-166149D01*
X217851Y-178649D01*
X218149Y-178848D01*
X218500Y-178918D01*
X294691D01*
X300374Y-184601D01*
X300305Y-184691D01*
X299907Y-185651D01*
X299771Y-186681D01*
X299907Y-187711D01*
X300305Y-188671D01*
X300937Y-189496D01*
X300990Y-189536D01*
X300830Y-190010D01*
X269808D01*
X260349Y-180551D01*
X260051Y-180352D01*
X259700Y-180282D01*
X203580D01*
X186418Y-163120D01*
Y-150419D01*
X189984Y-146852D01*
X195847D01*
X196008Y-147326D01*
D02*
G37*
%LPC*%
G36*
X250269Y-70260D02*
Y-73681D01*
X253690D01*
X253620Y-73149D01*
X253222Y-72188D01*
X252588Y-71362D01*
X251763Y-70728D01*
X250801Y-70330D01*
X250269Y-70260D01*
D02*
G37*
G36*
X249269D02*
X248737Y-70330D01*
X247776Y-70728D01*
X246950Y-71362D01*
X246317Y-72188D01*
X245918Y-73149D01*
X245848Y-73681D01*
X249269D01*
Y-70260D01*
D02*
G37*
G36*
X239769D02*
Y-73681D01*
X243190D01*
X243120Y-73149D01*
X242722Y-72188D01*
X242088Y-71362D01*
X241263Y-70728D01*
X240301Y-70330D01*
X239769Y-70260D01*
D02*
G37*
G36*
X238769D02*
X238237Y-70330D01*
X237276Y-70728D01*
X236450Y-71362D01*
X235817Y-72188D01*
X235418Y-73149D01*
X235348Y-73681D01*
X238769D01*
Y-70260D01*
D02*
G37*
G36*
X229269D02*
Y-73681D01*
X232690D01*
X232620Y-73149D01*
X232222Y-72188D01*
X231588Y-71362D01*
X230763Y-70728D01*
X229801Y-70330D01*
X229269Y-70260D01*
D02*
G37*
G36*
X228269D02*
X227737Y-70330D01*
X226776Y-70728D01*
X225950Y-71362D01*
X225317Y-72188D01*
X224918Y-73149D01*
X224848Y-73681D01*
X228269D01*
Y-70260D01*
D02*
G37*
G36*
X253690Y-74681D02*
X250269D01*
Y-78102D01*
X250801Y-78032D01*
X251763Y-77634D01*
X252588Y-77000D01*
X253222Y-76174D01*
X253620Y-75213D01*
X253690Y-74681D01*
D02*
G37*
G36*
X249269D02*
X245848D01*
X245918Y-75213D01*
X246317Y-76174D01*
X246950Y-77000D01*
X247776Y-77634D01*
X248737Y-78032D01*
X249269Y-78102D01*
Y-74681D01*
D02*
G37*
G36*
X243190D02*
X239769D01*
Y-78102D01*
X240301Y-78032D01*
X241263Y-77634D01*
X242088Y-77000D01*
X242722Y-76174D01*
X243120Y-75213D01*
X243190Y-74681D01*
D02*
G37*
G36*
X238769D02*
X235348D01*
X235418Y-75213D01*
X235817Y-76174D01*
X236450Y-77000D01*
X237276Y-77634D01*
X238237Y-78032D01*
X238769Y-78102D01*
Y-74681D01*
D02*
G37*
G36*
X232690D02*
X229269D01*
Y-78102D01*
X229801Y-78032D01*
X230763Y-77634D01*
X231588Y-77000D01*
X232222Y-76174D01*
X232620Y-75213D01*
X232690Y-74681D01*
D02*
G37*
G36*
X228269D02*
X224848D01*
X224918Y-75213D01*
X225317Y-76174D01*
X225950Y-77000D01*
X226776Y-77634D01*
X227737Y-78032D01*
X228269Y-78102D01*
Y-74681D01*
D02*
G37*
G36*
X249769Y-81098D02*
X248842Y-81220D01*
X247978Y-81578D01*
X247235Y-82147D01*
X246666Y-82889D01*
X246308Y-83754D01*
X246186Y-84681D01*
X246308Y-85609D01*
X246666Y-86473D01*
X246709Y-86529D01*
X246449Y-86789D01*
X246151Y-87236D01*
X246046Y-87762D01*
Y-92113D01*
X245051D01*
Y-97213D01*
X245051Y-97250D01*
X244962Y-97713D01*
X244651D01*
Y-100181D01*
X247620D01*
X250588D01*
Y-97713D01*
X249884D01*
X249795Y-97250D01*
X249795Y-97213D01*
Y-92113D01*
X248799D01*
Y-88593D01*
X249242Y-88195D01*
X249769Y-88265D01*
X250697Y-88142D01*
X251561Y-87784D01*
X252303Y-87215D01*
X252873Y-86473D01*
X253231Y-85609D01*
X253353Y-84681D01*
X253231Y-83754D01*
X252873Y-82889D01*
X252303Y-82147D01*
X251561Y-81578D01*
X250697Y-81220D01*
X249769Y-81098D01*
D02*
G37*
G36*
X228769D02*
X227842Y-81220D01*
X226978Y-81578D01*
X226235Y-82147D01*
X225666Y-82889D01*
X225308Y-83754D01*
X225186Y-84681D01*
X225308Y-85609D01*
X225480Y-86024D01*
X222014Y-89489D01*
X221716Y-89936D01*
X221611Y-90463D01*
Y-92113D01*
X220551D01*
Y-97213D01*
X220551Y-97250D01*
X220462Y-97713D01*
X220151D01*
Y-100181D01*
X223120D01*
X226088D01*
Y-97713D01*
X225384D01*
X225294Y-97250D01*
X225294Y-97213D01*
Y-92113D01*
X224364D01*
Y-91033D01*
X227427Y-87970D01*
X227842Y-88142D01*
X228769Y-88265D01*
X229697Y-88142D01*
X230561Y-87784D01*
X231303Y-87215D01*
X231873Y-86473D01*
X232231Y-85609D01*
X232353Y-84681D01*
X232231Y-83754D01*
X231873Y-82889D01*
X231303Y-82147D01*
X230561Y-81578D01*
X229697Y-81220D01*
X228769Y-81098D01*
D02*
G37*
G36*
X211238Y-115563D02*
X208769D01*
Y-118032D01*
X211238D01*
Y-115563D01*
D02*
G37*
G36*
X207769D02*
X205301D01*
Y-118032D01*
X207769D01*
Y-115563D01*
D02*
G37*
G36*
X221246Y-116252D02*
X220933Y-116314D01*
X220244Y-116774D01*
X219784Y-117463D01*
X219622Y-118276D01*
Y-119547D01*
X221246D01*
Y-116252D01*
D02*
G37*
G36*
X211238Y-119032D02*
X208769D01*
Y-121500D01*
X211238D01*
Y-119032D01*
D02*
G37*
G36*
X221246Y-120547D02*
X219622D01*
Y-121819D01*
X219784Y-122632D01*
X220244Y-123320D01*
X220933Y-123781D01*
X221246Y-123843D01*
Y-120547D01*
D02*
G37*
G36*
X217671Y-10366D02*
X213628D01*
Y-16181D01*
X217671D01*
Y-10366D01*
D02*
G37*
G36*
X212628D02*
X208584D01*
Y-16181D01*
X212628D01*
Y-10366D01*
D02*
G37*
G36*
X217671Y-17181D02*
X213628D01*
Y-22996D01*
X217671D01*
Y-17181D01*
D02*
G37*
G36*
X212628D02*
X208584D01*
Y-22996D01*
X212628D01*
Y-17181D01*
D02*
G37*
G36*
X227738Y-27831D02*
X225269D01*
Y-30299D01*
X227738D01*
Y-27831D01*
D02*
G37*
G36*
X224269D02*
X221801D01*
Y-30299D01*
X224269D01*
Y-27831D01*
D02*
G37*
G36*
X252222Y-30071D02*
X248769D01*
Y-33524D01*
X252222D01*
Y-30071D01*
D02*
G37*
G36*
X247769D02*
X244317D01*
Y-33524D01*
X247769D01*
Y-30071D01*
D02*
G37*
G36*
X252222Y-34524D02*
X248769D01*
Y-37976D01*
X252222D01*
Y-34524D01*
D02*
G37*
G36*
X247769D02*
X244317D01*
Y-37976D01*
X247769D01*
Y-34524D01*
D02*
G37*
G36*
X217671Y-43366D02*
X213628D01*
Y-49181D01*
X217671D01*
Y-43366D01*
D02*
G37*
G36*
X212628D02*
X208584D01*
Y-49181D01*
X212628D01*
Y-43366D01*
D02*
G37*
G36*
X217671Y-50181D02*
X213628D01*
Y-55996D01*
X217671D01*
Y-50181D01*
D02*
G37*
G36*
X212628D02*
X208584D01*
Y-55996D01*
X212628D01*
Y-50181D01*
D02*
G37*
G36*
X238309Y-54240D02*
X236529D01*
Y-56906D01*
X238309D01*
Y-54240D01*
D02*
G37*
G36*
X235529D02*
X233750D01*
Y-56906D01*
X235529D01*
Y-54240D01*
D02*
G37*
G36*
X232238Y-56331D02*
X229769D01*
Y-58799D01*
X232238D01*
Y-56331D01*
D02*
G37*
G36*
X228769D02*
X226301D01*
Y-58799D01*
X228769D01*
Y-56331D01*
D02*
G37*
G36*
X238309Y-57906D02*
X236529D01*
Y-60571D01*
X238309D01*
Y-57906D01*
D02*
G37*
G36*
X235529D02*
X233750D01*
Y-60571D01*
X235529D01*
Y-57906D01*
D02*
G37*
G36*
X354252Y-112363D02*
Y-116181D01*
X358070D01*
X357986Y-115547D01*
X357549Y-114489D01*
X356852Y-113581D01*
X355944Y-112884D01*
X354887Y-112446D01*
X354252Y-112363D01*
D02*
G37*
G36*
X353252D02*
X352617Y-112446D01*
X351560Y-112884D01*
X350652Y-113581D01*
X349955Y-114489D01*
X349517Y-115547D01*
X349434Y-116181D01*
X353252D01*
Y-112363D01*
D02*
G37*
G36*
X344969Y-113882D02*
X342500D01*
Y-116350D01*
X344969D01*
Y-113882D01*
D02*
G37*
G36*
X341500D02*
X339032D01*
Y-116350D01*
X341500D01*
Y-113882D01*
D02*
G37*
G36*
X248769Y-10418D02*
Y-13839D01*
X252190D01*
X252120Y-13307D01*
X251722Y-12345D01*
X251088Y-11519D01*
X250263Y-10886D01*
X249301Y-10488D01*
X248769Y-10418D01*
D02*
G37*
G36*
X247769D02*
X247237Y-10488D01*
X246276Y-10886D01*
X245450Y-11519D01*
X244817Y-12345D01*
X244418Y-13307D01*
X244348Y-13839D01*
X247769D01*
Y-10418D01*
D02*
G37*
G36*
X252190Y-14839D02*
X248769D01*
Y-18260D01*
X249301Y-18190D01*
X250263Y-17791D01*
X251088Y-17158D01*
X251722Y-16332D01*
X252120Y-15371D01*
X252190Y-14839D01*
D02*
G37*
G36*
X247769D02*
X244348D01*
X244418Y-15371D01*
X244817Y-16332D01*
X245450Y-17158D01*
X246276Y-17791D01*
X247237Y-18190D01*
X247769Y-18260D01*
Y-14839D01*
D02*
G37*
G36*
X295776Y-3328D02*
Y-19185D01*
X311632D01*
X311525Y-17546D01*
X311107Y-15443D01*
X310417Y-13413D01*
X309469Y-11490D01*
X308278Y-9708D01*
X306865Y-8096D01*
X305253Y-6682D01*
X303470Y-5491D01*
X301548Y-4543D01*
X299517Y-3854D01*
X297415Y-3436D01*
X295776Y-3328D01*
D02*
G37*
G36*
X294776D02*
X293136Y-3436D01*
X291034Y-3854D01*
X289004Y-4543D01*
X287081Y-5491D01*
X285298Y-6682D01*
X283686Y-8096D01*
X282273Y-9708D01*
X281082Y-11490D01*
X280134Y-13413D01*
X279445Y-15443D01*
X279026Y-17546D01*
X278919Y-19185D01*
X294776D01*
Y-3328D01*
D02*
G37*
G36*
X227738Y-18063D02*
X225269D01*
Y-20531D01*
X227738D01*
Y-18063D01*
D02*
G37*
G36*
X224269D02*
X221801D01*
Y-20531D01*
X224269D01*
Y-18063D01*
D02*
G37*
G36*
X199554Y-10766D02*
X191268D01*
Y-22596D01*
X193015D01*
Y-27766D01*
X191268D01*
Y-31285D01*
X182765D01*
X182765Y-31285D01*
X181848Y-31468D01*
X181071Y-31987D01*
X181071Y-31987D01*
X156459Y-56599D01*
X156269Y-56520D01*
X154931Y-56344D01*
X153592Y-56520D01*
X152345Y-57037D01*
X151274Y-57859D01*
X150452Y-58930D01*
X149935Y-60177D01*
X149759Y-61516D01*
X149935Y-62854D01*
X150452Y-64102D01*
X151274Y-65173D01*
X152345Y-65995D01*
X153592Y-66511D01*
X154931Y-66688D01*
X156269Y-66511D01*
X157517Y-65995D01*
X158588Y-65173D01*
X159410Y-64102D01*
X159926Y-62854D01*
X160102Y-61516D01*
X159926Y-60177D01*
X159848Y-59987D01*
X183758Y-36077D01*
X191268D01*
Y-39596D01*
X199554D01*
Y-27766D01*
X197807D01*
Y-22596D01*
X199554D01*
Y-10766D01*
D02*
G37*
G36*
X212628Y-27366D02*
X208584D01*
Y-33181D01*
X212628D01*
Y-27366D01*
D02*
G37*
G36*
X311632Y-20185D02*
X295776D01*
Y-36042D01*
X297415Y-35934D01*
X299517Y-35516D01*
X301548Y-34827D01*
X303470Y-33879D01*
X305253Y-32688D01*
X306865Y-31274D01*
X308278Y-29662D01*
X309469Y-27880D01*
X310417Y-25957D01*
X311107Y-23927D01*
X311525Y-21824D01*
X311632Y-20185D01*
D02*
G37*
G36*
X294776D02*
X278919D01*
X279026Y-21824D01*
X279445Y-23927D01*
X280134Y-25957D01*
X281082Y-27880D01*
X282273Y-29662D01*
X283686Y-31274D01*
X285298Y-32688D01*
X287081Y-33879D01*
X289004Y-34827D01*
X291034Y-35516D01*
X293136Y-35934D01*
X294776Y-36042D01*
Y-20185D01*
D02*
G37*
G36*
X212628Y-34181D02*
X208584D01*
Y-39996D01*
X212628D01*
Y-34181D01*
D02*
G37*
G36*
X242049Y-44791D02*
X240269D01*
Y-47457D01*
X242049D01*
Y-44791D01*
D02*
G37*
G36*
X239269D02*
X237490D01*
Y-47457D01*
X239269D01*
Y-44791D01*
D02*
G37*
G36*
X249769Y-46063D02*
X247301D01*
Y-48531D01*
X249769D01*
Y-46063D01*
D02*
G37*
G36*
X232238Y-46563D02*
X229769D01*
Y-49031D01*
X232238D01*
Y-46563D01*
D02*
G37*
G36*
X242049Y-48457D02*
X240269D01*
Y-51122D01*
X242049D01*
Y-48457D01*
D02*
G37*
G36*
X239269D02*
X237490D01*
Y-51122D01*
X239269D01*
Y-48457D01*
D02*
G37*
G36*
X253238Y-49531D02*
X250769D01*
Y-52000D01*
X253238D01*
Y-49531D01*
D02*
G37*
G36*
X249769D02*
X247301D01*
Y-52000D01*
X249769D01*
Y-49531D01*
D02*
G37*
G36*
X217671Y-66181D02*
X213628D01*
Y-71996D01*
X217671D01*
Y-66181D01*
D02*
G37*
G36*
X212628D02*
X208584D01*
Y-71996D01*
X212628D01*
Y-66181D01*
D02*
G37*
G36*
X341500Y-123650D02*
X339032D01*
Y-126118D01*
X341500D01*
Y-123650D01*
D02*
G37*
G36*
X354252Y-122363D02*
Y-126181D01*
X358070D01*
X357986Y-125547D01*
X357549Y-124489D01*
X356852Y-123581D01*
X355944Y-122885D01*
X354887Y-122447D01*
X354252Y-122363D01*
D02*
G37*
G36*
X353252Y-127181D02*
X349434D01*
X349517Y-127816D01*
X349955Y-128873D01*
X350652Y-129781D01*
X351560Y-130478D01*
X352617Y-130916D01*
X353252Y-130999D01*
Y-127181D01*
D02*
G37*
G36*
X199554Y-43766D02*
X191268D01*
Y-55596D01*
X193015D01*
Y-59766D01*
X191268D01*
Y-71596D01*
X193015D01*
Y-83124D01*
X153236Y-122903D01*
X152717Y-123680D01*
X152535Y-124597D01*
X152535Y-124597D01*
Y-130777D01*
X152345Y-130856D01*
X151274Y-131678D01*
X150452Y-132749D01*
X149935Y-133996D01*
X149759Y-135335D01*
X149935Y-136673D01*
X150452Y-137920D01*
X151274Y-138992D01*
X152345Y-139814D01*
X153592Y-140330D01*
X154931Y-140506D01*
X156269Y-140330D01*
X157517Y-139814D01*
X158588Y-138992D01*
X159410Y-137920D01*
X159926Y-136673D01*
X160102Y-135335D01*
X159926Y-133996D01*
X159410Y-132749D01*
X158588Y-131678D01*
X157517Y-130856D01*
X157327Y-130777D01*
Y-125589D01*
X197105Y-85811D01*
X197105Y-85811D01*
X197625Y-85034D01*
X197807Y-84117D01*
Y-71596D01*
X199554D01*
Y-59766D01*
X197807D01*
Y-55596D01*
X199554D01*
Y-43766D01*
D02*
G37*
G36*
X354252Y-182363D02*
Y-186181D01*
X358070D01*
X357986Y-185547D01*
X357549Y-184489D01*
X356852Y-183581D01*
X355944Y-182885D01*
X354887Y-182447D01*
X354252Y-182363D01*
D02*
G37*
G36*
X353252D02*
X352617Y-182447D01*
X351560Y-182885D01*
X350652Y-183581D01*
X349955Y-184489D01*
X349517Y-185547D01*
X349434Y-186181D01*
X353252D01*
Y-182363D01*
D02*
G37*
G36*
X358070Y-187181D02*
X354252D01*
Y-190999D01*
X354887Y-190916D01*
X355944Y-190478D01*
X356852Y-189781D01*
X357549Y-188873D01*
X357986Y-187816D01*
X358070Y-187181D01*
D02*
G37*
G36*
X353252D02*
X349434D01*
X349517Y-187816D01*
X349955Y-188873D01*
X350652Y-189781D01*
X351560Y-190478D01*
X352617Y-190916D01*
X353252Y-190999D01*
Y-187181D01*
D02*
G37*
G36*
X260238Y-138862D02*
X257769D01*
Y-141331D01*
X260238D01*
Y-138862D01*
D02*
G37*
G36*
X256769D02*
X254301D01*
Y-141331D01*
X256769D01*
Y-138862D01*
D02*
G37*
G36*
X260238Y-142331D02*
X257769D01*
Y-144799D01*
X260238D01*
Y-142331D01*
D02*
G37*
G36*
X256769D02*
X254301D01*
Y-144799D01*
X256769D01*
Y-142331D01*
D02*
G37*
G36*
X244293Y-149519D02*
Y-152815D01*
X245916D01*
Y-151543D01*
X245755Y-150731D01*
X245294Y-150042D01*
X244605Y-149582D01*
X244293Y-149519D01*
D02*
G37*
G36*
X260238Y-152362D02*
X257769D01*
Y-154831D01*
X260238D01*
Y-152362D01*
D02*
G37*
G36*
X256769D02*
X254301D01*
Y-154831D01*
X256769D01*
Y-152362D01*
D02*
G37*
G36*
X245916Y-153815D02*
X244293D01*
Y-157111D01*
X244605Y-157048D01*
X245294Y-156588D01*
X245755Y-155899D01*
X245916Y-155087D01*
Y-153815D01*
D02*
G37*
G36*
X260238Y-155831D02*
X257769D01*
Y-158299D01*
X260238D01*
Y-155831D01*
D02*
G37*
G36*
X256769D02*
X254301D01*
Y-158299D01*
X256769D01*
Y-155831D01*
D02*
G37*
G36*
X199269Y-155863D02*
Y-159681D01*
X203087D01*
X203004Y-159046D01*
X202566Y-157989D01*
X201869Y-157081D01*
X200961Y-156385D01*
X199904Y-155947D01*
X199269Y-155863D01*
D02*
G37*
G36*
X198269D02*
X197635Y-155947D01*
X196577Y-156385D01*
X195669Y-157081D01*
X194973Y-157989D01*
X194535Y-159046D01*
X194451Y-159681D01*
X198269D01*
Y-155863D01*
D02*
G37*
G36*
Y-160681D02*
X194451D01*
X194535Y-161316D01*
X194973Y-162373D01*
X195669Y-163281D01*
X196577Y-163978D01*
X197635Y-164416D01*
X198269Y-164499D01*
Y-160681D01*
D02*
G37*
G36*
X203087D02*
X199269D01*
Y-164499D01*
X199904Y-164416D01*
X200961Y-163978D01*
X201869Y-163281D01*
X202566Y-162373D01*
X203004Y-161316D01*
X203087Y-160681D01*
D02*
G37*
%LPD*%
D32*
X342000Y-123150D02*
D03*
Y-116850D02*
D03*
X257269Y-155331D02*
D03*
Y-149031D02*
D03*
Y-141831D02*
D03*
Y-135531D02*
D03*
X208269Y-118532D02*
D03*
Y-124831D02*
D03*
X250269Y-49031D02*
D03*
Y-55331D02*
D03*
X229269Y-49531D02*
D03*
Y-55831D02*
D03*
X224769Y-21032D02*
D03*
Y-27331D02*
D03*
D33*
X254116Y-106681D02*
D03*
X247423D02*
D03*
X241616D02*
D03*
X234923D02*
D03*
X229616D02*
D03*
X222923D02*
D03*
X254116Y-94681D02*
D03*
X247423D02*
D03*
X241616D02*
D03*
X234923D02*
D03*
X229616D02*
D03*
X222923D02*
D03*
D34*
X247620Y-100681D02*
D03*
X253919D02*
D03*
X235120D02*
D03*
X241419D02*
D03*
X223120D02*
D03*
X229419D02*
D03*
D35*
X239769Y-47957D02*
D03*
X243510Y-57406D02*
D03*
X236029D02*
D03*
D36*
X195411Y-49681D02*
D03*
X213128D02*
D03*
Y-65681D02*
D03*
X195411D02*
D03*
Y-16681D02*
D03*
X213128D02*
D03*
Y-33681D02*
D03*
X195411D02*
D03*
D37*
X249403Y-147705D02*
D03*
Y-144555D02*
D03*
Y-141405D02*
D03*
Y-138256D02*
D03*
Y-135106D02*
D03*
Y-131957D02*
D03*
Y-128807D02*
D03*
Y-125657D02*
D03*
X216135D02*
D03*
Y-128807D02*
D03*
Y-131957D02*
D03*
Y-135106D02*
D03*
Y-138256D02*
D03*
Y-141405D02*
D03*
Y-144555D02*
D03*
Y-147705D02*
D03*
D38*
X243793Y-120047D02*
D03*
X240643D02*
D03*
X237494D02*
D03*
X234344D02*
D03*
X231194D02*
D03*
X228045D02*
D03*
X224895D02*
D03*
X221746D02*
D03*
Y-153315D02*
D03*
X224895D02*
D03*
X228045D02*
D03*
X231194D02*
D03*
X234344D02*
D03*
X237494D02*
D03*
X240643D02*
D03*
X243793D02*
D03*
D39*
X257269Y-122335D02*
D03*
Y-129028D02*
D03*
D40*
X36704Y-135335D02*
X71269D01*
X33551Y-132181D02*
X36704Y-135335D01*
X30769Y-132181D02*
X33551D01*
X352638Y-17181D02*
X370000Y-34543D01*
X346142Y-80961D02*
X370000Y-57102D01*
Y-34543D01*
X344764Y-17181D02*
X362500Y-34917D01*
X355000Y-44202D02*
Y-37500D01*
X346142Y-53060D02*
X355000Y-44202D01*
X346142Y-67181D02*
X362500Y-50823D01*
X346142Y-53402D02*
Y-53060D01*
X362500Y-50823D02*
Y-34917D01*
X336890Y-17181D02*
X337124Y-17415D01*
Y-22124D02*
Y-17415D01*
Y-22124D02*
X342500Y-27500D01*
X345000D01*
X355000Y-37500D01*
X329250Y-22730D02*
X346142Y-39622D01*
X329250Y-22730D02*
Y-17415D01*
X329016Y-17181D02*
X329250Y-17415D01*
X353752Y-136681D02*
X362700Y-127733D01*
X353752Y-136681D02*
X353752D01*
X362700Y-127733D02*
Y-99550D01*
X370900Y-139533D02*
Y-96154D01*
X353752Y-156681D02*
X370900Y-139533D01*
X363784Y-89038D02*
X370900Y-96154D01*
X346142Y-80961D02*
X361505D01*
X338871Y-83973D02*
X343936Y-89038D01*
X363784D01*
X327500Y-85000D02*
X340000Y-97500D01*
X361505Y-80961D02*
X375000Y-94455D01*
X342238Y-93138D02*
X362086D01*
X353752Y-146681D02*
X366800Y-133633D01*
X334770Y-85671D02*
X342238Y-93138D01*
X334770Y-85671D02*
Y-64773D01*
X360650Y-97500D02*
X362700Y-99550D01*
X366800Y-133633D02*
Y-97852D01*
X375000Y-146546D02*
Y-94455D01*
X340000Y-97500D02*
X360650D01*
X355476Y-166070D02*
X375000Y-146546D01*
X334770Y-64773D02*
X346142Y-53402D01*
X362086Y-93138D02*
X366800Y-97852D01*
X327500Y-85000D02*
Y-58264D01*
X338871Y-83973D02*
Y-74452D01*
X346142Y-67181D01*
X327500Y-58264D02*
X333850Y-51914D01*
X333850D01*
X346142Y-39622D01*
X354363Y-166070D02*
X355476D01*
X353752Y-166681D02*
X354363Y-166070D01*
X195411Y-33681D02*
Y-16681D01*
X154931Y-61516D02*
X182765Y-33681D01*
X195411D01*
Y-65681D02*
Y-49681D01*
Y-84117D02*
Y-65681D01*
X154931Y-124597D02*
X195411Y-84117D01*
X154931Y-135335D02*
Y-124597D01*
X31769Y-106575D02*
X65613D01*
X69766Y-110728D01*
X71269D01*
D41*
X262000Y-127121D02*
Y-67061D01*
X250269Y-55331D02*
X262000Y-67061D01*
X332500Y-155429D02*
X353752Y-176681D01*
X332500Y-155429D02*
Y-137561D01*
X262404Y-67465D02*
X332500Y-137561D01*
X342000Y-123150D02*
X349369D01*
X352900Y-126681D01*
X353752D01*
X222769Y-163181D02*
X227588Y-168000D01*
X258000D01*
X264968Y-161031D02*
Y-149031D01*
X258000Y-168000D02*
X264968Y-161031D01*
X252682Y-149031D02*
X257269D01*
X251355Y-147705D02*
X252682Y-149031D01*
X249403Y-147705D02*
X251355D01*
X257269Y-149031D02*
X264968D01*
X266000Y-148000D01*
Y-138000D01*
X257269Y-135531D02*
X263531D01*
X266000Y-138000D01*
X256844Y-135106D02*
X257269Y-135531D01*
X249403Y-135106D02*
X256844D01*
X257269Y-135531D02*
Y-129028D01*
X257785Y-128512D01*
X260609D01*
X262000Y-127121D01*
X237494Y-157905D02*
Y-153315D01*
Y-157905D02*
X242769Y-163181D01*
X234344Y-160201D02*
Y-153315D01*
X232769Y-161776D02*
X234344Y-160201D01*
X232769Y-163181D02*
Y-161776D01*
X209096Y-125657D02*
X216135D01*
X204366Y-120927D02*
X209096Y-125657D01*
X216135D02*
Y-113865D01*
X220116Y-109884D01*
X226096D01*
X198769Y-120181D02*
X199515Y-120927D01*
X204366D01*
X198769Y-120181D02*
Y-95231D01*
X228000Y-66000D01*
X243510Y-58291D02*
Y-57406D01*
X235801Y-66000D02*
X243510Y-58291D01*
X228000Y-66000D02*
X235801D01*
X222923Y-106878D02*
Y-106681D01*
Y-106878D02*
X225929Y-109884D01*
X226096D01*
X247423Y-106878D02*
Y-106681D01*
Y-106878D02*
X250429Y-109884D01*
X250596D01*
X237929D02*
X238096D01*
X234923Y-106878D02*
Y-106681D01*
Y-106878D02*
X237929Y-109884D01*
X247620Y-100681D02*
X250793Y-103855D01*
Y-103884D02*
Y-103855D01*
X235120Y-100681D02*
X238293Y-103855D01*
Y-103884D02*
Y-103855D01*
X223120Y-100681D02*
X226293Y-103855D01*
Y-103884D02*
Y-103855D01*
X232000Y-113000D02*
X236193D01*
X237494Y-114301D01*
Y-120047D02*
Y-114301D01*
X229616Y-100681D02*
Y-94681D01*
Y-106681D02*
Y-100681D01*
X254116Y-106681D02*
Y-94681D01*
Y-111884D02*
Y-106681D01*
X247126Y-118874D02*
X254116Y-111884D01*
X243793Y-120047D02*
Y-119182D01*
X244100Y-118874D01*
X247126D01*
X242000Y-112000D02*
Y-95065D01*
X241616Y-94681D02*
X242000Y-95065D01*
X240643Y-120047D02*
Y-113357D01*
X242000Y-112000D01*
X229616Y-110616D02*
Y-106681D01*
Y-110616D02*
X232000Y-113000D01*
X249769Y-85416D02*
Y-84681D01*
X247423Y-87762D02*
X249769Y-85416D01*
X247423Y-94681D02*
Y-87762D01*
X234923Y-89028D02*
X239269Y-84681D01*
X234923Y-94681D02*
Y-89028D01*
X222988Y-90463D02*
X228769Y-84681D01*
X222988Y-94616D02*
Y-90463D01*
X222923Y-94681D02*
X222988Y-94616D01*
X244698Y-55331D02*
X250269D01*
X243510Y-56520D02*
X244698Y-55331D01*
X243510Y-57406D02*
Y-56520D01*
D42*
X189729Y-122771D02*
X189865Y-122635D01*
X182603Y-133306D02*
X192257Y-123652D01*
X189865Y-122635D02*
Y-122434D01*
X192257Y-123652D02*
X192348D01*
X215982Y-128654D02*
X216135Y-128807D01*
X211154Y-128654D02*
X215982D01*
X211000Y-128500D02*
X211154Y-128654D01*
X184300Y-135003D02*
X189163Y-130140D01*
X183451Y-134154D02*
X188666Y-128939D01*
X189864D01*
X194376Y-124428D01*
X189163Y-130140D02*
X190361D01*
X194873Y-125628D01*
X189729Y-124483D02*
Y-122771D01*
X182106Y-132106D02*
X189729Y-124483D01*
X194873Y-125628D02*
X200221D01*
X206455Y-131861D01*
X194376Y-124428D02*
X200718D01*
X211397Y-135106D01*
X216114Y-131978D02*
X216135Y-131957D01*
X211522Y-131978D02*
X216114D01*
X211500Y-132000D02*
X211522Y-131978D01*
X206455Y-131861D02*
Y-131861D01*
X211397Y-135106D02*
X216135D01*
X184300Y-163997D02*
Y-135003D01*
X183451Y-134154D02*
Y-134154D01*
X183100Y-164494D02*
Y-134506D01*
X183451Y-134154D01*
X216091Y-138211D02*
X216135Y-138256D01*
X212805Y-138211D02*
X216091D01*
X206455Y-131861D02*
X212805Y-138211D01*
X218728Y-149687D02*
X219890Y-148526D01*
X231857Y-138256D02*
X243000D01*
X199476Y-150887D02*
X219225D01*
X219890Y-148526D02*
Y-143388D01*
X185500Y-150039D02*
X189604Y-145935D01*
X219225Y-150887D02*
X231857Y-138256D01*
X205990Y-149687D02*
X218728D01*
X216135Y-141405D02*
X217907D01*
X202238Y-145935D02*
X205990Y-149687D01*
X185500Y-163500D02*
Y-150039D01*
X198769Y-150181D02*
X199476Y-150887D01*
X217907Y-141405D02*
X219890Y-143388D01*
X189604Y-145935D02*
X202238D01*
X185500Y-163500D02*
X203200Y-181200D01*
X198769Y-130181D02*
X199566D01*
X213940Y-144555D02*
X216135D01*
X199566Y-130181D02*
X213940Y-144555D01*
X182106Y-132106D02*
Y-132106D01*
X181754Y-132457D02*
X182106Y-132106D01*
X181754Y-132457D02*
Y-132457D01*
X181403Y-132809D02*
X181754Y-132457D01*
X181403Y-132809D02*
Y-132809D01*
X181052Y-133160D02*
X181403Y-132809D01*
X181052Y-133160D02*
Y-133160D01*
X180700Y-133512D02*
X181052Y-133160D01*
X180700Y-165488D02*
Y-133512D01*
Y-165488D02*
X181052Y-165840D01*
Y-165840D02*
Y-165840D01*
Y-165840D02*
X181403Y-166191D01*
Y-166191D02*
Y-166191D01*
Y-166191D02*
X181754Y-166543D01*
Y-166543D02*
Y-166543D01*
Y-166543D02*
X182106Y-166894D01*
Y-166894D02*
Y-166894D01*
X182603Y-133306D02*
Y-133306D01*
X182252Y-133657D02*
X182603Y-133306D01*
X182252Y-133657D02*
Y-133657D01*
X181900Y-134009D02*
X182252Y-133657D01*
X181900Y-164991D02*
Y-134009D01*
Y-164991D02*
X182252Y-165343D01*
Y-165343D02*
Y-165343D01*
Y-165343D02*
X182603Y-165694D01*
Y-165694D02*
Y-165694D01*
Y-165694D02*
X182954Y-166046D01*
Y-166046D02*
Y-166046D01*
X183100Y-164494D02*
X183451Y-164846D01*
Y-164846D02*
Y-164846D01*
Y-164846D02*
X183803Y-165197D01*
Y-165197D02*
Y-165197D01*
X184300Y-163997D02*
X184652Y-164348D01*
Y-164348D02*
Y-164348D01*
X182106Y-166894D02*
X201212Y-186000D01*
X257712D01*
X182954Y-166046D02*
X201709Y-184800D01*
X183803Y-165197D02*
X202206Y-183600D01*
X184652Y-164348D02*
X202703Y-182400D01*
X259203D01*
X203200Y-181200D02*
X259700D01*
X259203Y-182400D02*
X268151Y-191349D01*
X202206Y-183600D02*
X258706D01*
X201709Y-184800D02*
X258209D01*
X266454Y-193046D01*
X257712Y-186000D02*
X265606Y-193894D01*
X265606D01*
X265957Y-194246D01*
X265957D01*
X266309Y-194597D01*
X266309D01*
X266660Y-194948D01*
X266660D01*
X267439Y-195728D01*
X311561D01*
X312340Y-194948D01*
X312340D01*
X312691Y-194597D01*
X312691D01*
X313043Y-194246D01*
X313043D01*
X313394Y-193894D01*
X313394D01*
X266454Y-193046D02*
X266454D01*
X266806Y-193397D01*
X266806D01*
X267157Y-193748D01*
X267157D01*
X267936Y-194528D01*
X311064D01*
X311843Y-193748D01*
X311843D01*
X312194Y-193397D01*
X312194D01*
X312546Y-193046D01*
X312546D01*
X258706Y-183600D02*
X267303Y-192197D01*
X267303D01*
X267654Y-192549D01*
X267654D01*
X268433Y-193328D01*
X310566D01*
X311346Y-192549D01*
X311346D01*
X311697Y-192197D01*
X311697D01*
X268151Y-191349D02*
X268151D01*
X268931Y-192128D01*
X310069D01*
X310848Y-191349D01*
X310848D01*
X259700Y-181200D02*
X269428Y-190928D01*
X309572D01*
X313394Y-193894D02*
X317800Y-189488D01*
X312546Y-193046D02*
X316600Y-188991D01*
X311697Y-192197D02*
X315400Y-188494D01*
X310848Y-191349D02*
X314200Y-187997D01*
X309572Y-190928D02*
X313000Y-187500D01*
X295071Y-178000D02*
X303752Y-186681D01*
X218500Y-178000D02*
X295071D01*
X294000Y-175500D02*
X302819Y-166681D01*
X225500Y-175500D02*
X294000D01*
X218897Y-176700D02*
X303733D01*
X302819Y-166681D02*
X303752D01*
X317800Y-189488D02*
Y-130729D01*
X303752Y-116681D02*
X317800Y-130729D01*
X316600Y-188991D02*
Y-139529D01*
X303752Y-126681D02*
X316600Y-139529D01*
X315400Y-188494D02*
Y-148329D01*
X303752Y-136681D02*
X315400Y-148329D01*
X314200Y-187997D02*
Y-157129D01*
X303752Y-146681D02*
X314200Y-157129D01*
X313000Y-187500D02*
Y-165929D01*
X303752Y-156681D02*
X313000Y-165929D01*
X205705Y-147705D02*
X216135D01*
X198769Y-140769D02*
X205705Y-147705D01*
X198769Y-140769D02*
Y-140181D01*
X243000Y-138256D02*
X249403D01*
X243000D02*
Y-127485D01*
X246810Y-123675D02*
X255929D01*
X257269Y-122335D01*
X243000Y-127485D02*
X246810Y-123675D01*
X213685Y-153315D02*
X221746D01*
X206000Y-161000D02*
X213685Y-153315D01*
X212628Y-157069D02*
X222913D01*
X208000Y-161697D02*
X212628Y-157069D01*
X222913D02*
X224895Y-155087D01*
X206000Y-165500D02*
Y-161000D01*
Y-165500D02*
X218500Y-178000D01*
X207200Y-165003D02*
X218897Y-176700D01*
X207200Y-162497D02*
X208000Y-161697D01*
X207200Y-165003D02*
Y-162497D01*
X218000Y-168000D02*
X225500Y-175500D01*
X303733Y-176700D02*
X303752Y-176681D01*
X218000Y-168000D02*
Y-161945D01*
X221676Y-158269D01*
X208000Y-161697D02*
Y-161697D01*
X221676Y-158269D02*
X224862D01*
X228045Y-155087D01*
X224895D02*
Y-153315D01*
X228045Y-155087D02*
Y-153315D01*
D43*
X198769Y-120181D02*
D03*
Y-130181D02*
D03*
Y-140181D02*
D03*
Y-150181D02*
D03*
Y-160181D02*
D03*
X242769Y-163181D02*
D03*
X232769D02*
D03*
X222769D02*
D03*
X212769D02*
D03*
X303752Y-116681D02*
D03*
Y-126681D02*
D03*
Y-136681D02*
D03*
Y-146681D02*
D03*
Y-156681D02*
D03*
Y-186681D02*
D03*
Y-176681D02*
D03*
Y-166681D02*
D03*
X353752Y-116681D02*
D03*
Y-126681D02*
D03*
Y-136681D02*
D03*
Y-146681D02*
D03*
Y-156681D02*
D03*
Y-186681D02*
D03*
Y-176681D02*
D03*
Y-166681D02*
D03*
D44*
X346142Y-39622D02*
D03*
Y-53402D02*
D03*
Y-80961D02*
D03*
Y-67181D02*
D03*
D45*
X19685Y-19685D02*
D03*
X295276D02*
D03*
X19685Y-177165D02*
D03*
D46*
X71269Y-135335D02*
D03*
Y-110728D02*
D03*
X154931Y-135335D02*
D03*
Y-61516D02*
D03*
X71269D02*
D03*
D47*
X329016Y-17181D02*
D03*
X352638D02*
D03*
X336890D02*
D03*
X344764D02*
D03*
D48*
X248269Y-34024D02*
D03*
D49*
Y-14339D02*
D03*
X249769Y-84681D02*
D03*
X239269Y-74181D02*
D03*
Y-84681D02*
D03*
X228769Y-74181D02*
D03*
Y-84681D02*
D03*
X249769Y-74181D02*
D03*
D50*
X31769Y-106575D02*
D03*
X30769Y-132181D02*
D03*
D51*
X226000Y-126000D02*
D03*
X222000Y-125500D02*
D03*
X248000Y-157500D02*
D03*
Y-153000D02*
D03*
X255500Y-54000D02*
D03*
X245000Y-50500D02*
D03*
Y-45000D02*
D03*
X234500Y-49000D02*
D03*
X230000Y-44500D02*
D03*
X203500Y-70000D02*
D03*
Y-65000D02*
D03*
Y-60500D02*
D03*
Y-38000D02*
D03*
Y-32500D02*
D03*
Y-27500D02*
D03*
X229500Y-20500D02*
D03*
X227500Y-15500D02*
D03*
X223000D02*
D03*
X343500Y-128500D02*
D03*
X339500D02*
D03*
X214500Y-168500D02*
D03*
X217500Y-171000D02*
D03*
X220000Y-174000D02*
D03*
X262000Y-158500D02*
D03*
Y-154500D02*
D03*
X262500Y-140500D02*
D03*
Y-144500D02*
D03*
X208500Y-113500D02*
D03*
X192348Y-123652D02*
D03*
X189865Y-122434D02*
D03*
X211000Y-128500D02*
D03*
X211500Y-132000D02*
D03*
X250596Y-109884D02*
D03*
X238096D02*
D03*
X226096D02*
D03*
X226293Y-103884D02*
D03*
X238293D02*
D03*
X250793D02*
D03*
M02*
