G04*
G04 #@! TF.GenerationSoftware,Altium Limited,Altium Designer,20.1.12 (249)*
G04*
G04 Layer_Color=32768*
%FSLAX25Y25*%
%MOIN*%
G70*
G04*
G04 #@! TF.SameCoordinates,A6E25834-E18E-4168-B90B-242D5B1D2A4A*
G04*
G04*
G04 #@! TF.FilePolarity,Positive*
G04*
G01*
G75*
%ADD12C,0.00787*%
%ADD42C,0.00600*%
%ADD52C,0.01000*%
D12*
X295266Y-25984D02*
Y-13386D01*
X288967Y-19685D02*
X301584D01*
X19676Y-25984D02*
Y-13386D01*
X13377Y-19685D02*
X25993D01*
X13386Y-177165D02*
X26003D01*
X19685Y-183465D02*
Y-170866D01*
D42*
X-71671Y2399D02*
X-75670D01*
Y-600D01*
X-73671Y400D01*
X-72671D01*
X-71671Y-600D01*
Y-2599D01*
X-72671Y-3599D01*
X-74670D01*
X-75670Y-2599D01*
X-69672Y1399D02*
X-68672Y2399D01*
X-66673D01*
X-65673Y1399D01*
Y-2599D01*
X-66673Y-3599D01*
X-68672D01*
X-69672Y-2599D01*
Y1399D01*
X-63674Y-3599D02*
Y-2599D01*
X-62674D01*
Y-3599D01*
X-63674D01*
X-58676Y1399D02*
X-57676Y2399D01*
X-55677D01*
X-54677Y1399D01*
Y-2599D01*
X-55677Y-3599D01*
X-57676D01*
X-58676Y-2599D01*
Y1399D01*
X-52678D02*
X-51678Y2399D01*
X-49679D01*
X-48679Y1399D01*
Y-2599D01*
X-49679Y-3599D01*
X-51678D01*
X-52678Y-2599D01*
Y1399D01*
X-46679Y-3599D02*
Y400D01*
X-45680D01*
X-44680Y-600D01*
Y-3599D01*
Y-600D01*
X-43681Y400D01*
X-42681Y-600D01*
Y-3599D01*
X-40681D02*
Y400D01*
X-39682D01*
X-38682Y-600D01*
Y-3599D01*
Y-600D01*
X-37682Y400D01*
X-36683Y-600D01*
Y-3599D01*
X-72671Y-23284D02*
Y-17286D01*
X-75670Y-20285D01*
X-71671D01*
X-65673Y-17286D02*
X-69672D01*
Y-20285D01*
X-67673Y-19285D01*
X-66673D01*
X-65673Y-20285D01*
Y-22284D01*
X-66673Y-23284D01*
X-68672D01*
X-69672Y-22284D01*
X-63674Y-23284D02*
Y-22284D01*
X-62674D01*
Y-23284D01*
X-63674D01*
X-58676Y-18286D02*
X-57676Y-17286D01*
X-55677D01*
X-54677Y-18286D01*
Y-22284D01*
X-55677Y-23284D01*
X-57676D01*
X-58676Y-22284D01*
Y-18286D01*
X-52678D02*
X-51678Y-17286D01*
X-49679D01*
X-48679Y-18286D01*
Y-22284D01*
X-49679Y-23284D01*
X-51678D01*
X-52678Y-22284D01*
Y-18286D01*
X-46679Y-23284D02*
Y-19285D01*
X-45680D01*
X-44680Y-20285D01*
Y-23284D01*
Y-20285D01*
X-43681Y-19285D01*
X-42681Y-20285D01*
Y-23284D01*
X-40681D02*
Y-19285D01*
X-39682D01*
X-38682Y-20285D01*
Y-23284D01*
Y-20285D01*
X-37682Y-19285D01*
X-36683Y-20285D01*
Y-23284D01*
X-65673Y-174766D02*
X-69672D01*
Y-177765D01*
X-67673Y-176766D01*
X-66673D01*
X-65673Y-177765D01*
Y-179765D01*
X-66673Y-180764D01*
X-68672D01*
X-69672Y-179765D01*
X-63674Y-180764D02*
Y-179765D01*
X-62674D01*
Y-180764D01*
X-63674D01*
X-58676Y-175766D02*
X-57676Y-174766D01*
X-55677D01*
X-54677Y-175766D01*
Y-179765D01*
X-55677Y-180764D01*
X-57676D01*
X-58676Y-179765D01*
Y-175766D01*
X-52678D02*
X-51678Y-174766D01*
X-49679D01*
X-48679Y-175766D01*
Y-179765D01*
X-49679Y-180764D01*
X-51678D01*
X-52678Y-179765D01*
Y-175766D01*
X-46679Y-180764D02*
Y-176766D01*
X-45680D01*
X-44680Y-177765D01*
Y-180764D01*
Y-177765D01*
X-43681Y-176766D01*
X-42681Y-177765D01*
Y-180764D01*
X-40681D02*
Y-176766D01*
X-39682D01*
X-38682Y-177765D01*
Y-180764D01*
Y-177765D01*
X-37682Y-176766D01*
X-36683Y-177765D01*
Y-180764D01*
X-69672Y-195451D02*
X-68672Y-194451D01*
X-66673D01*
X-65673Y-195451D01*
Y-199450D01*
X-66673Y-200449D01*
X-68672D01*
X-69672Y-199450D01*
Y-195451D01*
X-63674Y-200449D02*
Y-199450D01*
X-62674D01*
Y-200449D01*
X-63674D01*
X-58676Y-195451D02*
X-57676Y-194451D01*
X-55677D01*
X-54677Y-195451D01*
Y-199450D01*
X-55677Y-200449D01*
X-57676D01*
X-58676Y-199450D01*
Y-195451D01*
X-52678D02*
X-51678Y-194451D01*
X-49679D01*
X-48679Y-195451D01*
Y-199450D01*
X-49679Y-200449D01*
X-51678D01*
X-52678Y-199450D01*
Y-195451D01*
X-46679Y-200449D02*
Y-196451D01*
X-45680D01*
X-44680Y-197450D01*
Y-200449D01*
Y-197450D01*
X-43681Y-196451D01*
X-42681Y-197450D01*
Y-200449D01*
X-40681D02*
Y-196451D01*
X-39682D01*
X-38682Y-197450D01*
Y-200449D01*
Y-197450D01*
X-37682Y-196451D01*
X-36683Y-197450D01*
Y-200449D01*
X361796Y-230033D02*
X362796Y-231033D01*
X364795D01*
X365795Y-230033D01*
Y-226034D01*
X364795Y-225035D01*
X362796D01*
X361796Y-226034D01*
Y-227034D01*
X362796Y-228034D01*
X365795D01*
X367794Y-225035D02*
X371793D01*
Y-226034D01*
X367794Y-230033D01*
Y-231033D01*
X373792D02*
Y-230033D01*
X374792D01*
Y-231033D01*
X373792D01*
X378791Y-226034D02*
X379790Y-225035D01*
X381790D01*
X382789Y-226034D01*
Y-230033D01*
X381790Y-231033D01*
X379790D01*
X378791Y-230033D01*
Y-226034D01*
X384789D02*
X385788Y-225035D01*
X387788D01*
X388787Y-226034D01*
Y-230033D01*
X387788Y-231033D01*
X385788D01*
X384789Y-230033D01*
Y-226034D01*
X390787Y-231033D02*
Y-227034D01*
X391786D01*
X392786Y-228034D01*
Y-231033D01*
Y-228034D01*
X393786Y-227034D01*
X394785Y-228034D01*
Y-231033D01*
X396785D02*
Y-227034D01*
X397784D01*
X398784Y-228034D01*
Y-231033D01*
Y-228034D01*
X399784Y-227034D01*
X400783Y-228034D01*
Y-231033D01*
X275182Y-225035D02*
X279181D01*
Y-226034D01*
X275182Y-230033D01*
Y-231033D01*
X285179Y-225035D02*
X281180D01*
Y-228034D01*
X283179Y-227034D01*
X284179D01*
X285179Y-228034D01*
Y-230033D01*
X284179Y-231033D01*
X282180D01*
X281180Y-230033D01*
X287178Y-231033D02*
Y-230033D01*
X288178D01*
Y-231033D01*
X287178D01*
X292176Y-226034D02*
X293176Y-225035D01*
X295175D01*
X296175Y-226034D01*
Y-230033D01*
X295175Y-231033D01*
X293176D01*
X292176Y-230033D01*
Y-226034D01*
X298174D02*
X299174Y-225035D01*
X301173D01*
X302173Y-226034D01*
Y-230033D01*
X301173Y-231033D01*
X299174D01*
X298174Y-230033D01*
Y-226034D01*
X304172Y-231033D02*
Y-227034D01*
X305172D01*
X306172Y-228034D01*
Y-231033D01*
Y-228034D01*
X307172Y-227034D01*
X308171Y-228034D01*
Y-231033D01*
X310171D02*
Y-227034D01*
X311170D01*
X312170Y-228034D01*
Y-231033D01*
Y-228034D01*
X313170Y-227034D01*
X314169Y-228034D01*
Y-231033D01*
X11512Y-233984D02*
Y-237983D01*
X14511D01*
X13511Y-235983D01*
Y-234984D01*
X14511Y-233984D01*
X16511D01*
X17510Y-234984D01*
Y-236983D01*
X16511Y-237983D01*
X17510Y-231985D02*
X16511D01*
Y-230985D01*
X17510D01*
Y-231985D01*
X12512Y-226986D02*
X11512Y-225987D01*
Y-223987D01*
X12512Y-222988D01*
X16511D01*
X17510Y-223987D01*
Y-225987D01*
X16511Y-226986D01*
X12512D01*
Y-220988D02*
X11512Y-219988D01*
Y-217989D01*
X12512Y-216989D01*
X16511D01*
X17510Y-217989D01*
Y-219988D01*
X16511Y-220988D01*
X12512D01*
X17510Y-214990D02*
X13511D01*
Y-213990D01*
X14511Y-212991D01*
X17510D01*
X14511D01*
X13511Y-211991D01*
X14511Y-210991D01*
X17510D01*
Y-208992D02*
X13511D01*
Y-207992D01*
X14511Y-206993D01*
X17510D01*
X14511D01*
X13511Y-205993D01*
X14511Y-204993D01*
X17510D01*
X-7961Y-238376D02*
X-8960Y-237377D01*
Y-235377D01*
X-7961Y-234378D01*
X-3962D01*
X-2962Y-235377D01*
Y-237377D01*
X-3962Y-238376D01*
X-7961D01*
X-2962Y-232378D02*
X-3962D01*
Y-231379D01*
X-2962D01*
Y-232378D01*
X-7961Y-227380D02*
X-8960Y-226380D01*
Y-224381D01*
X-7961Y-223381D01*
X-3962D01*
X-2962Y-224381D01*
Y-226380D01*
X-3962Y-227380D01*
X-7961D01*
Y-221382D02*
X-8960Y-220382D01*
Y-218383D01*
X-7961Y-217383D01*
X-3962D01*
X-2962Y-218383D01*
Y-220382D01*
X-3962Y-221382D01*
X-7961D01*
X-2962Y-215384D02*
X-6961D01*
Y-214384D01*
X-5961Y-213385D01*
X-2962D01*
X-5961D01*
X-6961Y-212385D01*
X-5961Y-211385D01*
X-2962D01*
Y-209386D02*
X-6961D01*
Y-208386D01*
X-5961Y-207386D01*
X-2962D01*
X-5961D01*
X-6961Y-206387D01*
X-5961Y-205387D01*
X-2962D01*
D52*
X301593Y-19685D02*
G03*
X301593Y-19685I-6318J0D01*
G01*
X26003Y-177165D02*
G03*
X26003Y-177165I-6318J0D01*
G01*
Y-19685D02*
G03*
X26003Y-19685I-6318J0D01*
G01*
X-34483Y-0D02*
X-1500D01*
X-34483Y-19685D02*
X11867D01*
X-34483Y-177165D02*
X11867D01*
X-34483Y-196850D02*
X-1500D01*
X381890Y-222835D02*
Y-198350D01*
X295276Y-222835D02*
Y-27503D01*
X19685Y-222835D02*
Y-184858D01*
X0Y-222835D02*
Y-198350D01*
Y-196850D02*
Y-0D01*
X381890Y0D01*
X381890Y-196850D01*
X0D02*
X381890D01*
M02*
