G04*
G04 #@! TF.GenerationSoftware,Altium Limited,Altium Designer,20.1.12 (249)*
G04*
G04 Layer_Physical_Order=2*
G04 Layer_Color=16711680*
%FSLAX25Y25*%
%MOIN*%
G70*
G04*
G04 #@! TF.SameCoordinates,A6E25834-E18E-4168-B90B-242D5B1D2A4A*
G04*
G04*
G04 #@! TF.FilePolarity,Positive*
G04*
G01*
G75*
%ADD41C,0.01500*%
%ADD42C,0.00600*%
%ADD43C,0.06693*%
%ADD44C,0.09843*%
%ADD45C,0.30709*%
%ADD46C,0.09055*%
%ADD47C,0.04724*%
%ADD48R,0.05906X0.05906*%
%ADD49C,0.05906*%
%ADD50C,0.13780*%
%ADD51C,0.02165*%
G36*
X381890Y-196850D02*
X141500D01*
X141500Y-0D01*
X381890Y0D01*
X381890Y-196850D01*
D02*
G37*
%LPC*%
G36*
X248769Y-10418D02*
Y-13839D01*
X252190D01*
X252120Y-13307D01*
X251722Y-12345D01*
X251088Y-11519D01*
X250263Y-10886D01*
X249301Y-10488D01*
X248769Y-10418D01*
D02*
G37*
G36*
X247769D02*
X247237Y-10488D01*
X246276Y-10886D01*
X245450Y-11519D01*
X244817Y-12345D01*
X244418Y-13307D01*
X244348Y-13839D01*
X247769D01*
Y-10418D01*
D02*
G37*
G36*
X252190Y-14839D02*
X248769D01*
Y-18260D01*
X249301Y-18190D01*
X250263Y-17791D01*
X251088Y-17158D01*
X251722Y-16332D01*
X252120Y-15371D01*
X252190Y-14839D01*
D02*
G37*
G36*
X247769D02*
X244348D01*
X244418Y-15371D01*
X244817Y-16332D01*
X245450Y-17158D01*
X246276Y-17791D01*
X247237Y-18190D01*
X247769Y-18260D01*
Y-14839D01*
D02*
G37*
G36*
X295776Y-3328D02*
Y-19185D01*
X311632D01*
X311525Y-17546D01*
X311107Y-15443D01*
X310417Y-13413D01*
X309469Y-11490D01*
X308278Y-9708D01*
X306865Y-8096D01*
X305253Y-6682D01*
X303470Y-5491D01*
X301548Y-4543D01*
X299517Y-3854D01*
X297415Y-3436D01*
X295776Y-3328D01*
D02*
G37*
G36*
X294776D02*
X293136Y-3436D01*
X291034Y-3854D01*
X289004Y-4543D01*
X287081Y-5491D01*
X285298Y-6682D01*
X283686Y-8096D01*
X282273Y-9708D01*
X281082Y-11490D01*
X280134Y-13413D01*
X279445Y-15443D01*
X279026Y-17546D01*
X278919Y-19185D01*
X294776D01*
Y-3328D01*
D02*
G37*
G36*
X352638Y-14193D02*
X351865Y-14295D01*
X351144Y-14594D01*
X350525Y-15068D01*
X350050Y-15687D01*
X349752Y-16408D01*
X349650Y-17181D01*
X349752Y-17954D01*
X350050Y-18675D01*
X350525Y-19294D01*
X351144Y-19769D01*
X351865Y-20067D01*
X352638Y-20169D01*
X353411Y-20067D01*
X354132Y-19769D01*
X354750Y-19294D01*
X355225Y-18675D01*
X355524Y-17954D01*
X355626Y-17181D01*
X355524Y-16408D01*
X355225Y-15687D01*
X354750Y-15068D01*
X354132Y-14594D01*
X353411Y-14295D01*
X352638Y-14193D01*
D02*
G37*
G36*
X344764D02*
X343990Y-14295D01*
X343270Y-14594D01*
X342651Y-15068D01*
X342176Y-15687D01*
X341878Y-16408D01*
X341776Y-17181D01*
X341878Y-17954D01*
X342176Y-18675D01*
X342651Y-19294D01*
X343270Y-19769D01*
X343990Y-20067D01*
X344764Y-20169D01*
X345537Y-20067D01*
X346258Y-19769D01*
X346877Y-19294D01*
X347351Y-18675D01*
X347650Y-17954D01*
X347751Y-17181D01*
X347650Y-16408D01*
X347351Y-15687D01*
X346877Y-15068D01*
X346258Y-14594D01*
X345537Y-14295D01*
X344764Y-14193D01*
D02*
G37*
G36*
X336890D02*
X336117Y-14295D01*
X335396Y-14594D01*
X334777Y-15068D01*
X334302Y-15687D01*
X334004Y-16408D01*
X333902Y-17181D01*
X334004Y-17954D01*
X334302Y-18675D01*
X334777Y-19294D01*
X335396Y-19769D01*
X336117Y-20067D01*
X336890Y-20169D01*
X337663Y-20067D01*
X338384Y-19769D01*
X339002Y-19294D01*
X339477Y-18675D01*
X339776Y-17954D01*
X339878Y-17181D01*
X339776Y-16408D01*
X339477Y-15687D01*
X339002Y-15068D01*
X338384Y-14594D01*
X337663Y-14295D01*
X336890Y-14193D01*
D02*
G37*
G36*
X329016D02*
X328242Y-14295D01*
X327522Y-14594D01*
X326903Y-15068D01*
X326428Y-15687D01*
X326130Y-16408D01*
X326028Y-17181D01*
X326130Y-17954D01*
X326428Y-18675D01*
X326903Y-19294D01*
X327522Y-19769D01*
X328242Y-20067D01*
X329016Y-20169D01*
X329789Y-20067D01*
X330510Y-19769D01*
X331128Y-19294D01*
X331603Y-18675D01*
X331902Y-17954D01*
X332003Y-17181D01*
X331902Y-16408D01*
X331603Y-15687D01*
X331128Y-15068D01*
X330510Y-14594D01*
X329789Y-14295D01*
X329016Y-14193D01*
D02*
G37*
G36*
X311632Y-20185D02*
X295776D01*
Y-36042D01*
X297415Y-35934D01*
X299517Y-35516D01*
X301548Y-34827D01*
X303470Y-33879D01*
X305253Y-32688D01*
X306865Y-31274D01*
X308278Y-29662D01*
X309469Y-27880D01*
X310417Y-25957D01*
X311107Y-23927D01*
X311525Y-21824D01*
X311632Y-20185D01*
D02*
G37*
G36*
X294776D02*
X278919D01*
X279026Y-21824D01*
X279445Y-23927D01*
X280134Y-25957D01*
X281082Y-27880D01*
X282273Y-29662D01*
X283686Y-31274D01*
X285298Y-32688D01*
X287081Y-33879D01*
X289004Y-34827D01*
X291034Y-35516D01*
X293136Y-35934D01*
X294776Y-36042D01*
Y-20185D01*
D02*
G37*
G36*
X251822Y-30471D02*
X244717D01*
Y-37576D01*
X251822D01*
Y-30471D01*
D02*
G37*
G36*
X346142Y-34053D02*
X344700Y-34243D01*
X343357Y-34799D01*
X342204Y-35684D01*
X341319Y-36838D01*
X340763Y-38181D01*
X340573Y-39622D01*
X340763Y-41063D01*
X341319Y-42406D01*
X342204Y-43560D01*
X343357Y-44445D01*
X344700Y-45001D01*
X346142Y-45191D01*
X347583Y-45001D01*
X348926Y-44445D01*
X350079Y-43560D01*
X350964Y-42406D01*
X351521Y-41063D01*
X351711Y-39622D01*
X351521Y-38181D01*
X350964Y-36838D01*
X350079Y-35684D01*
X348926Y-34799D01*
X347583Y-34243D01*
X346142Y-34053D01*
D02*
G37*
G36*
Y-47833D02*
X344700Y-48022D01*
X343357Y-48579D01*
X342204Y-49464D01*
X341319Y-50617D01*
X340763Y-51960D01*
X340573Y-53402D01*
X340763Y-54843D01*
X341319Y-56186D01*
X342204Y-57339D01*
X343357Y-58224D01*
X344700Y-58781D01*
X346142Y-58970D01*
X347583Y-58781D01*
X348926Y-58224D01*
X350079Y-57339D01*
X350964Y-56186D01*
X351521Y-54843D01*
X351711Y-53402D01*
X351521Y-51960D01*
X350964Y-50617D01*
X350079Y-49464D01*
X348926Y-48579D01*
X347583Y-48022D01*
X346142Y-47833D01*
D02*
G37*
G36*
X154931Y-56344D02*
X153592Y-56520D01*
X152345Y-57037D01*
X151274Y-57859D01*
X150452Y-58930D01*
X149935Y-60177D01*
X149759Y-61516D01*
X149935Y-62854D01*
X150452Y-64102D01*
X151274Y-65173D01*
X152345Y-65995D01*
X153592Y-66511D01*
X154931Y-66688D01*
X156269Y-66511D01*
X157517Y-65995D01*
X158588Y-65173D01*
X159410Y-64102D01*
X159926Y-62854D01*
X160102Y-61516D01*
X159926Y-60177D01*
X159410Y-58930D01*
X158588Y-57859D01*
X157517Y-57037D01*
X156269Y-56520D01*
X154931Y-56344D01*
D02*
G37*
G36*
X346142Y-61612D02*
X344700Y-61802D01*
X343357Y-62358D01*
X342204Y-63243D01*
X341319Y-64397D01*
X340763Y-65740D01*
X340573Y-67181D01*
X340763Y-68622D01*
X341319Y-69965D01*
X342204Y-71119D01*
X343357Y-72004D01*
X344700Y-72560D01*
X346142Y-72750D01*
X347583Y-72560D01*
X348926Y-72004D01*
X350079Y-71119D01*
X350964Y-69965D01*
X351521Y-68622D01*
X351711Y-67181D01*
X351521Y-65740D01*
X350964Y-64397D01*
X350079Y-63243D01*
X348926Y-62358D01*
X347583Y-61802D01*
X346142Y-61612D01*
D02*
G37*
G36*
X250269Y-70260D02*
Y-73681D01*
X253690D01*
X253620Y-73149D01*
X253222Y-72188D01*
X252588Y-71362D01*
X251763Y-70728D01*
X250801Y-70330D01*
X250269Y-70260D01*
D02*
G37*
G36*
X249269D02*
X248737Y-70330D01*
X247776Y-70728D01*
X246950Y-71362D01*
X246317Y-72188D01*
X245918Y-73149D01*
X245848Y-73681D01*
X249269D01*
Y-70260D01*
D02*
G37*
G36*
X239769D02*
Y-73681D01*
X243190D01*
X243120Y-73149D01*
X242722Y-72188D01*
X242088Y-71362D01*
X241263Y-70728D01*
X240301Y-70330D01*
X239769Y-70260D01*
D02*
G37*
G36*
X238769D02*
X238237Y-70330D01*
X237276Y-70728D01*
X236450Y-71362D01*
X235817Y-72188D01*
X235418Y-73149D01*
X235348Y-73681D01*
X238769D01*
Y-70260D01*
D02*
G37*
G36*
X229269D02*
Y-73681D01*
X232690D01*
X232620Y-73149D01*
X232222Y-72188D01*
X231588Y-71362D01*
X230763Y-70728D01*
X229801Y-70330D01*
X229269Y-70260D01*
D02*
G37*
G36*
X228269D02*
X227737Y-70330D01*
X226776Y-70728D01*
X225950Y-71362D01*
X225317Y-72188D01*
X224918Y-73149D01*
X224848Y-73681D01*
X228269D01*
Y-70260D01*
D02*
G37*
G36*
X253690Y-74681D02*
X250269D01*
Y-78102D01*
X250801Y-78032D01*
X251763Y-77634D01*
X252588Y-77000D01*
X253222Y-76174D01*
X253620Y-75213D01*
X253690Y-74681D01*
D02*
G37*
G36*
X249269D02*
X245848D01*
X245918Y-75213D01*
X246317Y-76174D01*
X246950Y-77000D01*
X247776Y-77634D01*
X248737Y-78032D01*
X249269Y-78102D01*
Y-74681D01*
D02*
G37*
G36*
X243190D02*
X239769D01*
Y-78102D01*
X240301Y-78032D01*
X241263Y-77634D01*
X242088Y-77000D01*
X242722Y-76174D01*
X243120Y-75213D01*
X243190Y-74681D01*
D02*
G37*
G36*
X238769D02*
X235348D01*
X235418Y-75213D01*
X235817Y-76174D01*
X236450Y-77000D01*
X237276Y-77634D01*
X238237Y-78032D01*
X238769Y-78102D01*
Y-74681D01*
D02*
G37*
G36*
X232690D02*
X229269D01*
Y-78102D01*
X229801Y-78032D01*
X230763Y-77634D01*
X231588Y-77000D01*
X232222Y-76174D01*
X232620Y-75213D01*
X232690Y-74681D01*
D02*
G37*
G36*
X228269D02*
X224848D01*
X224918Y-75213D01*
X225317Y-76174D01*
X225950Y-77000D01*
X226776Y-77634D01*
X227737Y-78032D01*
X228269Y-78102D01*
Y-74681D01*
D02*
G37*
G36*
X346142Y-75392D02*
X344700Y-75582D01*
X343357Y-76138D01*
X342204Y-77023D01*
X341319Y-78176D01*
X340763Y-79519D01*
X340573Y-80961D01*
X340763Y-82402D01*
X341319Y-83745D01*
X342204Y-84898D01*
X343357Y-85783D01*
X344700Y-86340D01*
X346142Y-86529D01*
X347583Y-86340D01*
X348926Y-85783D01*
X350079Y-84898D01*
X350964Y-83745D01*
X351521Y-82402D01*
X351711Y-80961D01*
X351521Y-79519D01*
X350964Y-78176D01*
X350079Y-77023D01*
X348926Y-76138D01*
X347583Y-75582D01*
X346142Y-75392D01*
D02*
G37*
G36*
X249769Y-81098D02*
X248842Y-81220D01*
X247978Y-81578D01*
X247235Y-82147D01*
X246666Y-82889D01*
X246308Y-83754D01*
X246186Y-84681D01*
X246308Y-85609D01*
X246666Y-86473D01*
X247235Y-87215D01*
X247978Y-87784D01*
X248842Y-88142D01*
X249769Y-88265D01*
X250697Y-88142D01*
X251561Y-87784D01*
X252303Y-87215D01*
X252873Y-86473D01*
X253231Y-85609D01*
X253353Y-84681D01*
X253231Y-83754D01*
X252873Y-82889D01*
X252303Y-82147D01*
X251561Y-81578D01*
X250697Y-81220D01*
X249769Y-81098D01*
D02*
G37*
G36*
X239269D02*
X238342Y-81220D01*
X237478Y-81578D01*
X236735Y-82147D01*
X236166Y-82889D01*
X235808Y-83754D01*
X235686Y-84681D01*
X235808Y-85609D01*
X236166Y-86473D01*
X236735Y-87215D01*
X237478Y-87784D01*
X238342Y-88142D01*
X239269Y-88265D01*
X240197Y-88142D01*
X241061Y-87784D01*
X241803Y-87215D01*
X242373Y-86473D01*
X242731Y-85609D01*
X242853Y-84681D01*
X242731Y-83754D01*
X242373Y-82889D01*
X241803Y-82147D01*
X241061Y-81578D01*
X240197Y-81220D01*
X239269Y-81098D01*
D02*
G37*
G36*
X228769D02*
X227842Y-81220D01*
X226978Y-81578D01*
X226235Y-82147D01*
X225666Y-82889D01*
X225308Y-83754D01*
X225186Y-84681D01*
X225308Y-85609D01*
X225666Y-86473D01*
X226235Y-87215D01*
X226978Y-87784D01*
X227842Y-88142D01*
X228769Y-88265D01*
X229697Y-88142D01*
X230561Y-87784D01*
X231303Y-87215D01*
X231873Y-86473D01*
X232231Y-85609D01*
X232353Y-84681D01*
X232231Y-83754D01*
X231873Y-82889D01*
X231303Y-82147D01*
X230561Y-81578D01*
X229697Y-81220D01*
X228769Y-81098D01*
D02*
G37*
G36*
X250596Y-108168D02*
X249940Y-108299D01*
X249628Y-108507D01*
X239065D01*
X238753Y-108299D01*
X238096Y-108168D01*
X237440Y-108299D01*
X237128Y-108507D01*
X227065D01*
X226753Y-108299D01*
X226096Y-108168D01*
X225440Y-108299D01*
X224883Y-108671D01*
X224511Y-109227D01*
X224381Y-109884D01*
X224511Y-110540D01*
X224883Y-111097D01*
X225440Y-111469D01*
X226096Y-111599D01*
X226753Y-111469D01*
X227065Y-111260D01*
X237128D01*
X237440Y-111469D01*
X238096Y-111599D01*
X238753Y-111469D01*
X239065Y-111260D01*
X249628D01*
X249940Y-111469D01*
X250596Y-111599D01*
X251253Y-111469D01*
X251810Y-111097D01*
X252181Y-110540D01*
X252312Y-109884D01*
X252181Y-109227D01*
X251810Y-108671D01*
X251253Y-108299D01*
X250596Y-108168D01*
D02*
G37*
G36*
X353752Y-112701D02*
X352722Y-112836D01*
X351762Y-113234D01*
X350937Y-113866D01*
X350305Y-114691D01*
X349907Y-115651D01*
X349771Y-116681D01*
X349907Y-117711D01*
X350305Y-118671D01*
X350937Y-119496D01*
X351762Y-120128D01*
X352722Y-120526D01*
X353752Y-120662D01*
X354782Y-120526D01*
X355742Y-120128D01*
X356567Y-119496D01*
X357199Y-118671D01*
X357597Y-117711D01*
X357733Y-116681D01*
X357597Y-115651D01*
X357199Y-114691D01*
X356567Y-113866D01*
X355742Y-113234D01*
X354782Y-112836D01*
X353752Y-112701D01*
D02*
G37*
G36*
X303752D02*
X302722Y-112836D01*
X301762Y-113234D01*
X300937Y-113866D01*
X300305Y-114691D01*
X299907Y-115651D01*
X299771Y-116681D01*
X299907Y-117711D01*
X300305Y-118671D01*
X300937Y-119496D01*
X301762Y-120128D01*
X302722Y-120526D01*
X303752Y-120662D01*
X304782Y-120526D01*
X305742Y-120128D01*
X306567Y-119496D01*
X307199Y-118671D01*
X307597Y-117711D01*
X307733Y-116681D01*
X307597Y-115651D01*
X307199Y-114691D01*
X306567Y-113866D01*
X305742Y-113234D01*
X304782Y-112836D01*
X303752Y-112701D01*
D02*
G37*
G36*
X198769Y-116201D02*
X197739Y-116336D01*
X196779Y-116734D01*
X195955Y-117367D01*
X195322Y-118191D01*
X194924Y-119151D01*
X194789Y-120181D01*
X194924Y-121211D01*
X195072Y-121567D01*
X194648Y-121850D01*
X193649Y-120851D01*
X193351Y-120652D01*
X193000Y-120582D01*
X191000D01*
X190649Y-120652D01*
X190393Y-120823D01*
X189865Y-120718D01*
X189209Y-120849D01*
X188652Y-121221D01*
X188280Y-121777D01*
X188150Y-122434D01*
X188280Y-123091D01*
X188652Y-123647D01*
X189209Y-124019D01*
X189865Y-124150D01*
X190522Y-124019D01*
X190722Y-124102D01*
X190763Y-124309D01*
X191135Y-124865D01*
X191692Y-125237D01*
X192348Y-125368D01*
X192697Y-125298D01*
X193747Y-126349D01*
X194045Y-126548D01*
X194396Y-126618D01*
X196109D01*
X196279Y-127118D01*
X195955Y-127366D01*
X195322Y-128191D01*
X194924Y-129151D01*
X194789Y-130181D01*
X194924Y-131211D01*
X195322Y-132171D01*
X195955Y-132996D01*
X196779Y-133628D01*
X197739Y-134026D01*
X198769Y-134162D01*
X199800Y-134026D01*
X200760Y-133628D01*
X201584Y-132996D01*
X202217Y-132171D01*
X202614Y-131211D01*
X202750Y-130181D01*
X202614Y-129151D01*
X202217Y-128191D01*
X201584Y-127366D01*
X201260Y-127118D01*
X201429Y-126618D01*
X204820D01*
X209854Y-131651D01*
X209784Y-132000D01*
X209915Y-132657D01*
X210287Y-133213D01*
X210843Y-133585D01*
X211500Y-133716D01*
X212157Y-133585D01*
X212713Y-133213D01*
X213085Y-132657D01*
X213216Y-132000D01*
X213085Y-131343D01*
X212713Y-130787D01*
X212157Y-130415D01*
X212084Y-130401D01*
X211979Y-129870D01*
X212213Y-129713D01*
X212585Y-129156D01*
X212716Y-128500D01*
X212585Y-127843D01*
X212213Y-127287D01*
X211657Y-126915D01*
X211103Y-126805D01*
X208076Y-123779D01*
X207779Y-123580D01*
X207428Y-123510D01*
X201692D01*
X201531Y-123037D01*
X201584Y-122996D01*
X202217Y-122171D01*
X202614Y-121211D01*
X202750Y-120181D01*
X202614Y-119151D01*
X202217Y-118191D01*
X201584Y-117367D01*
X200760Y-116734D01*
X199800Y-116336D01*
X198769Y-116201D01*
D02*
G37*
G36*
X354252Y-122363D02*
Y-126181D01*
X358070D01*
X357986Y-125547D01*
X357549Y-124489D01*
X356852Y-123581D01*
X355944Y-122885D01*
X354887Y-122447D01*
X354252Y-122363D01*
D02*
G37*
G36*
X353252D02*
X352617Y-122447D01*
X351560Y-122885D01*
X350652Y-123581D01*
X349955Y-124489D01*
X349517Y-125547D01*
X349434Y-126181D01*
X353252D01*
Y-122363D01*
D02*
G37*
G36*
X303752Y-122701D02*
X302722Y-122836D01*
X301762Y-123234D01*
X300937Y-123866D01*
X300305Y-124691D01*
X299907Y-125651D01*
X299771Y-126681D01*
X299907Y-127711D01*
X300305Y-128671D01*
X300937Y-129496D01*
X301762Y-130128D01*
X302722Y-130526D01*
X303752Y-130662D01*
X304782Y-130526D01*
X305742Y-130128D01*
X306567Y-129496D01*
X307199Y-128671D01*
X307597Y-127711D01*
X307733Y-126681D01*
X307597Y-125651D01*
X307199Y-124691D01*
X306567Y-123866D01*
X305742Y-123234D01*
X304782Y-122836D01*
X303752Y-122701D01*
D02*
G37*
G36*
X358070Y-127181D02*
X354252D01*
Y-130999D01*
X354887Y-130916D01*
X355944Y-130478D01*
X356852Y-129781D01*
X357549Y-128873D01*
X357986Y-127816D01*
X358070Y-127181D01*
D02*
G37*
G36*
X353252D02*
X349434D01*
X349517Y-127816D01*
X349955Y-128873D01*
X350652Y-129781D01*
X351560Y-130478D01*
X352617Y-130916D01*
X353252Y-130999D01*
Y-127181D01*
D02*
G37*
G36*
X154931Y-130163D02*
X153592Y-130339D01*
X152345Y-130856D01*
X151274Y-131678D01*
X150452Y-132749D01*
X149935Y-133996D01*
X149759Y-135335D01*
X149935Y-136673D01*
X150452Y-137920D01*
X151274Y-138992D01*
X152345Y-139814D01*
X153592Y-140330D01*
X154931Y-140506D01*
X156269Y-140330D01*
X157517Y-139814D01*
X158588Y-138992D01*
X159410Y-137920D01*
X159926Y-136673D01*
X160102Y-135335D01*
X159926Y-133996D01*
X159410Y-132749D01*
X158588Y-131678D01*
X157517Y-130856D01*
X156269Y-130339D01*
X154931Y-130163D01*
D02*
G37*
G36*
X353752Y-132701D02*
X352722Y-132836D01*
X351762Y-133234D01*
X350937Y-133867D01*
X350305Y-134691D01*
X349907Y-135651D01*
X349771Y-136681D01*
X349907Y-137711D01*
X350305Y-138671D01*
X350937Y-139496D01*
X351762Y-140128D01*
X352722Y-140526D01*
X353752Y-140662D01*
X354782Y-140526D01*
X355742Y-140128D01*
X356567Y-139496D01*
X357199Y-138671D01*
X357597Y-137711D01*
X357733Y-136681D01*
X357597Y-135651D01*
X357199Y-134691D01*
X356567Y-133867D01*
X355742Y-133234D01*
X354782Y-132836D01*
X353752Y-132701D01*
D02*
G37*
G36*
X303752D02*
X302722Y-132836D01*
X301762Y-133234D01*
X300937Y-133867D01*
X300305Y-134691D01*
X299907Y-135651D01*
X299771Y-136681D01*
X299907Y-137711D01*
X300305Y-138671D01*
X300937Y-139496D01*
X301762Y-140128D01*
X302722Y-140526D01*
X303752Y-140662D01*
X304782Y-140526D01*
X305742Y-140128D01*
X306567Y-139496D01*
X307199Y-138671D01*
X307597Y-137711D01*
X307733Y-136681D01*
X307597Y-135651D01*
X307199Y-134691D01*
X306567Y-133867D01*
X305742Y-133234D01*
X304782Y-132836D01*
X303752Y-132701D01*
D02*
G37*
G36*
X198769Y-136201D02*
X197739Y-136336D01*
X196779Y-136734D01*
X195955Y-137366D01*
X195322Y-138191D01*
X194924Y-139151D01*
X194789Y-140181D01*
X194924Y-141211D01*
X195322Y-142171D01*
X195955Y-142996D01*
X196779Y-143628D01*
X197739Y-144026D01*
X198769Y-144162D01*
X199800Y-144026D01*
X200760Y-143628D01*
X201584Y-142996D01*
X202217Y-142171D01*
X202614Y-141211D01*
X202750Y-140181D01*
X202614Y-139151D01*
X202217Y-138191D01*
X201584Y-137366D01*
X200760Y-136734D01*
X199800Y-136336D01*
X198769Y-136201D01*
D02*
G37*
G36*
X353752Y-142701D02*
X352722Y-142836D01*
X351762Y-143234D01*
X350937Y-143867D01*
X350305Y-144691D01*
X349907Y-145651D01*
X349771Y-146681D01*
X349907Y-147711D01*
X350305Y-148671D01*
X350937Y-149496D01*
X351762Y-150128D01*
X352722Y-150526D01*
X353752Y-150662D01*
X354782Y-150526D01*
X355742Y-150128D01*
X356567Y-149496D01*
X357199Y-148671D01*
X357597Y-147711D01*
X357733Y-146681D01*
X357597Y-145651D01*
X357199Y-144691D01*
X356567Y-143867D01*
X355742Y-143234D01*
X354782Y-142836D01*
X353752Y-142701D01*
D02*
G37*
G36*
X303752D02*
X302722Y-142836D01*
X301762Y-143234D01*
X300937Y-143867D01*
X300305Y-144691D01*
X299907Y-145651D01*
X299771Y-146681D01*
X299907Y-147711D01*
X300305Y-148671D01*
X300937Y-149496D01*
X301762Y-150128D01*
X302722Y-150526D01*
X303752Y-150662D01*
X304782Y-150526D01*
X305742Y-150128D01*
X306567Y-149496D01*
X307199Y-148671D01*
X307597Y-147711D01*
X307733Y-146681D01*
X307597Y-145651D01*
X307199Y-144691D01*
X306567Y-143867D01*
X305742Y-143234D01*
X304782Y-142836D01*
X303752Y-142701D01*
D02*
G37*
G36*
X198769Y-146201D02*
X197739Y-146336D01*
X196779Y-146734D01*
X195955Y-147366D01*
X195322Y-148191D01*
X194924Y-149151D01*
X194789Y-150181D01*
X194924Y-151211D01*
X195322Y-152171D01*
X195955Y-152996D01*
X196779Y-153628D01*
X197739Y-154026D01*
X198769Y-154162D01*
X199800Y-154026D01*
X200760Y-153628D01*
X201584Y-152996D01*
X202217Y-152171D01*
X202614Y-151211D01*
X202750Y-150181D01*
X202614Y-149151D01*
X202217Y-148191D01*
X201584Y-147366D01*
X200760Y-146734D01*
X199800Y-146336D01*
X198769Y-146201D01*
D02*
G37*
G36*
X199269Y-155863D02*
Y-159681D01*
X203087D01*
X203004Y-159046D01*
X202566Y-157989D01*
X201869Y-157081D01*
X200961Y-156385D01*
X199904Y-155947D01*
X199269Y-155863D01*
D02*
G37*
G36*
X198269D02*
X197635Y-155947D01*
X196577Y-156385D01*
X195669Y-157081D01*
X194973Y-157989D01*
X194535Y-159046D01*
X194451Y-159681D01*
X198269D01*
Y-155863D01*
D02*
G37*
G36*
X353752Y-152701D02*
X352722Y-152836D01*
X351762Y-153234D01*
X350937Y-153867D01*
X350305Y-154691D01*
X349907Y-155651D01*
X349771Y-156681D01*
X349907Y-157711D01*
X350305Y-158671D01*
X350937Y-159496D01*
X351762Y-160128D01*
X352722Y-160526D01*
X353752Y-160662D01*
X354782Y-160526D01*
X355742Y-160128D01*
X356567Y-159496D01*
X357199Y-158671D01*
X357597Y-157711D01*
X357733Y-156681D01*
X357597Y-155651D01*
X357199Y-154691D01*
X356567Y-153867D01*
X355742Y-153234D01*
X354782Y-152836D01*
X353752Y-152701D01*
D02*
G37*
G36*
X303752D02*
X302722Y-152836D01*
X301762Y-153234D01*
X300937Y-153867D01*
X300305Y-154691D01*
X299907Y-155651D01*
X299771Y-156681D01*
X299907Y-157711D01*
X300305Y-158671D01*
X300937Y-159496D01*
X301762Y-160128D01*
X302722Y-160526D01*
X303752Y-160662D01*
X304782Y-160526D01*
X305742Y-160128D01*
X306567Y-159496D01*
X307199Y-158671D01*
X307597Y-157711D01*
X307733Y-156681D01*
X307597Y-155651D01*
X307199Y-154691D01*
X306567Y-153867D01*
X305742Y-153234D01*
X304782Y-152836D01*
X303752Y-152701D01*
D02*
G37*
G36*
X213269Y-158863D02*
Y-162681D01*
X217087D01*
X217004Y-162047D01*
X216566Y-160989D01*
X215869Y-160081D01*
X214961Y-159385D01*
X213904Y-158947D01*
X213269Y-158863D01*
D02*
G37*
G36*
X212269D02*
X211635Y-158947D01*
X210577Y-159385D01*
X209669Y-160081D01*
X208973Y-160989D01*
X208535Y-162047D01*
X208451Y-162681D01*
X212269D01*
Y-158863D01*
D02*
G37*
G36*
X198269Y-160681D02*
X194451D01*
X194535Y-161316D01*
X194973Y-162373D01*
X195669Y-163281D01*
X196577Y-163978D01*
X197635Y-164416D01*
X198269Y-164499D01*
Y-160681D01*
D02*
G37*
G36*
X203087D02*
X199269D01*
Y-164499D01*
X199904Y-164416D01*
X200961Y-163978D01*
X201869Y-163281D01*
X202566Y-162373D01*
X203004Y-161316D01*
X203087Y-160681D01*
D02*
G37*
G36*
X242769Y-159201D02*
X241739Y-159336D01*
X240779Y-159734D01*
X239955Y-160366D01*
X239322Y-161191D01*
X238924Y-162151D01*
X238789Y-163181D01*
X238924Y-164211D01*
X239322Y-165171D01*
X239955Y-165996D01*
X240779Y-166628D01*
X241739Y-167026D01*
X242769Y-167162D01*
X243799Y-167026D01*
X244759Y-166628D01*
X245584Y-165996D01*
X246217Y-165171D01*
X246614Y-164211D01*
X246750Y-163181D01*
X246614Y-162151D01*
X246217Y-161191D01*
X245584Y-160366D01*
X244759Y-159734D01*
X243799Y-159336D01*
X242769Y-159201D01*
D02*
G37*
G36*
X232769D02*
X231739Y-159336D01*
X230779Y-159734D01*
X229955Y-160366D01*
X229322Y-161191D01*
X228924Y-162151D01*
X228789Y-163181D01*
X228924Y-164211D01*
X229322Y-165171D01*
X229955Y-165996D01*
X230779Y-166628D01*
X231739Y-167026D01*
X232769Y-167162D01*
X233800Y-167026D01*
X234759Y-166628D01*
X235584Y-165996D01*
X236216Y-165171D01*
X236614Y-164211D01*
X236750Y-163181D01*
X236614Y-162151D01*
X236216Y-161191D01*
X235584Y-160366D01*
X234759Y-159734D01*
X233800Y-159336D01*
X232769Y-159201D01*
D02*
G37*
G36*
X222769D02*
X221739Y-159336D01*
X220779Y-159734D01*
X219955Y-160366D01*
X219322Y-161191D01*
X218924Y-162151D01*
X218789Y-163181D01*
X218924Y-164211D01*
X219322Y-165171D01*
X219955Y-165996D01*
X220779Y-166628D01*
X221739Y-167026D01*
X222769Y-167162D01*
X223799Y-167026D01*
X224760Y-166628D01*
X225584Y-165996D01*
X226217Y-165171D01*
X226614Y-164211D01*
X226750Y-163181D01*
X226614Y-162151D01*
X226217Y-161191D01*
X225584Y-160366D01*
X224760Y-159734D01*
X223799Y-159336D01*
X222769Y-159201D01*
D02*
G37*
G36*
X217087Y-163681D02*
X213269D01*
Y-167499D01*
X213904Y-167416D01*
X214961Y-166978D01*
X215869Y-166281D01*
X216566Y-165373D01*
X217004Y-164316D01*
X217087Y-163681D01*
D02*
G37*
G36*
X212269D02*
X208451D01*
X208535Y-164316D01*
X208973Y-165373D01*
X209669Y-166281D01*
X210577Y-166978D01*
X211635Y-167416D01*
X212269Y-167499D01*
Y-163681D01*
D02*
G37*
G36*
X353752Y-162701D02*
X352722Y-162836D01*
X351762Y-163234D01*
X350937Y-163866D01*
X350305Y-164691D01*
X349907Y-165651D01*
X349771Y-166681D01*
X349907Y-167711D01*
X350305Y-168671D01*
X350937Y-169496D01*
X351762Y-170128D01*
X352722Y-170526D01*
X353752Y-170662D01*
X354782Y-170526D01*
X355742Y-170128D01*
X356567Y-169496D01*
X357199Y-168671D01*
X357597Y-167711D01*
X357733Y-166681D01*
X357597Y-165651D01*
X357199Y-164691D01*
X356567Y-163866D01*
X355742Y-163234D01*
X354782Y-162836D01*
X353752Y-162701D01*
D02*
G37*
G36*
X303752D02*
X302722Y-162836D01*
X301762Y-163234D01*
X300937Y-163866D01*
X300305Y-164691D01*
X299907Y-165651D01*
X299771Y-166681D01*
X299907Y-167711D01*
X300305Y-168671D01*
X300937Y-169496D01*
X301762Y-170128D01*
X302722Y-170526D01*
X303752Y-170662D01*
X304782Y-170526D01*
X305742Y-170128D01*
X306567Y-169496D01*
X307199Y-168671D01*
X307597Y-167711D01*
X307733Y-166681D01*
X307597Y-165651D01*
X307199Y-164691D01*
X306567Y-163866D01*
X305742Y-163234D01*
X304782Y-162836D01*
X303752Y-162701D01*
D02*
G37*
G36*
X353752Y-172701D02*
X352722Y-172836D01*
X351762Y-173234D01*
X350937Y-173866D01*
X350305Y-174691D01*
X349907Y-175651D01*
X349771Y-176681D01*
X349907Y-177711D01*
X350305Y-178671D01*
X350937Y-179496D01*
X351762Y-180128D01*
X352722Y-180526D01*
X353752Y-180662D01*
X354782Y-180526D01*
X355742Y-180128D01*
X356567Y-179496D01*
X357199Y-178671D01*
X357597Y-177711D01*
X357733Y-176681D01*
X357597Y-175651D01*
X357199Y-174691D01*
X356567Y-173866D01*
X355742Y-173234D01*
X354782Y-172836D01*
X353752Y-172701D01*
D02*
G37*
G36*
X303752D02*
X302722Y-172836D01*
X301762Y-173234D01*
X300937Y-173866D01*
X300305Y-174691D01*
X299907Y-175651D01*
X299771Y-176681D01*
X299907Y-177711D01*
X300305Y-178671D01*
X300937Y-179496D01*
X301762Y-180128D01*
X302722Y-180526D01*
X303752Y-180662D01*
X304782Y-180526D01*
X305742Y-180128D01*
X306567Y-179496D01*
X307199Y-178671D01*
X307597Y-177711D01*
X307733Y-176681D01*
X307597Y-175651D01*
X307199Y-174691D01*
X306567Y-173866D01*
X305742Y-173234D01*
X304782Y-172836D01*
X303752Y-172701D01*
D02*
G37*
G36*
X354252Y-182363D02*
Y-186181D01*
X358070D01*
X357986Y-185547D01*
X357549Y-184489D01*
X356852Y-183581D01*
X355944Y-182885D01*
X354887Y-182447D01*
X354252Y-182363D01*
D02*
G37*
G36*
X353252D02*
X352617Y-182447D01*
X351560Y-182885D01*
X350652Y-183581D01*
X349955Y-184489D01*
X349517Y-185547D01*
X349434Y-186181D01*
X353252D01*
Y-182363D01*
D02*
G37*
G36*
X303752Y-182701D02*
X302722Y-182836D01*
X301762Y-183234D01*
X300937Y-183867D01*
X300305Y-184691D01*
X299907Y-185651D01*
X299771Y-186681D01*
X299907Y-187711D01*
X300305Y-188671D01*
X300937Y-189496D01*
X301762Y-190128D01*
X302722Y-190526D01*
X303752Y-190662D01*
X304782Y-190526D01*
X305742Y-190128D01*
X306567Y-189496D01*
X307199Y-188671D01*
X307597Y-187711D01*
X307733Y-186681D01*
X307597Y-185651D01*
X307199Y-184691D01*
X306567Y-183867D01*
X305742Y-183234D01*
X304782Y-182836D01*
X303752Y-182701D01*
D02*
G37*
G36*
X358070Y-187181D02*
X354252D01*
Y-190999D01*
X354887Y-190916D01*
X355944Y-190478D01*
X356852Y-189781D01*
X357549Y-188873D01*
X357986Y-187816D01*
X358070Y-187181D01*
D02*
G37*
G36*
X353252D02*
X349434D01*
X349517Y-187816D01*
X349955Y-188873D01*
X350652Y-189781D01*
X351560Y-190478D01*
X352617Y-190916D01*
X353252Y-190999D01*
Y-187181D01*
D02*
G37*
%LPD*%
D41*
X238096Y-109884D02*
X250596D01*
X226096D02*
X238096D01*
D42*
X207428Y-124428D02*
X211001Y-128001D01*
X195928Y-124428D02*
X207428D01*
X190066Y-122434D02*
X191000Y-121500D01*
X193000D02*
X195928Y-124428D01*
X191000Y-121500D02*
X193000D01*
X189865Y-122434D02*
X190066D01*
X192348Y-123652D02*
X194396Y-125700D01*
X205200D01*
X211500Y-132000D01*
X211001Y-128498D02*
Y-128001D01*
X211000Y-128500D02*
X211001Y-128498D01*
D43*
X198769Y-120181D02*
D03*
Y-130181D02*
D03*
Y-140181D02*
D03*
Y-150181D02*
D03*
Y-160181D02*
D03*
X242769Y-163181D02*
D03*
X232769D02*
D03*
X222769D02*
D03*
X212769D02*
D03*
X303752Y-116681D02*
D03*
Y-126681D02*
D03*
Y-136681D02*
D03*
Y-146681D02*
D03*
Y-156681D02*
D03*
Y-186681D02*
D03*
Y-176681D02*
D03*
Y-166681D02*
D03*
X353752Y-116681D02*
D03*
Y-126681D02*
D03*
Y-136681D02*
D03*
Y-146681D02*
D03*
Y-156681D02*
D03*
Y-186681D02*
D03*
Y-176681D02*
D03*
Y-166681D02*
D03*
D44*
X346142Y-39622D02*
D03*
Y-53402D02*
D03*
Y-80961D02*
D03*
Y-67181D02*
D03*
D45*
X19685Y-19685D02*
D03*
X295276D02*
D03*
X19685Y-177165D02*
D03*
D46*
X71269Y-135335D02*
D03*
Y-110728D02*
D03*
X154931Y-135335D02*
D03*
Y-61516D02*
D03*
X71269D02*
D03*
D47*
X329016Y-17181D02*
D03*
X352638D02*
D03*
X336890D02*
D03*
X344764D02*
D03*
D48*
X248269Y-34024D02*
D03*
D49*
Y-14339D02*
D03*
X249769Y-84681D02*
D03*
X239269Y-74181D02*
D03*
Y-84681D02*
D03*
X228769Y-74181D02*
D03*
Y-84681D02*
D03*
X249769Y-74181D02*
D03*
D50*
X31769Y-106575D02*
D03*
X30769Y-132181D02*
D03*
D51*
X226000Y-126000D02*
D03*
X222000Y-125500D02*
D03*
X248000Y-157500D02*
D03*
Y-153000D02*
D03*
X255500Y-54000D02*
D03*
X245000Y-50500D02*
D03*
Y-45000D02*
D03*
X234500Y-49000D02*
D03*
X230000Y-44500D02*
D03*
X203500Y-70000D02*
D03*
Y-65000D02*
D03*
Y-60500D02*
D03*
Y-38000D02*
D03*
Y-32500D02*
D03*
Y-27500D02*
D03*
X229500Y-20500D02*
D03*
X227500Y-15500D02*
D03*
X223000D02*
D03*
X343500Y-128500D02*
D03*
X339500D02*
D03*
X214500Y-168500D02*
D03*
X217500Y-171000D02*
D03*
X220000Y-174000D02*
D03*
X262000Y-158500D02*
D03*
Y-154500D02*
D03*
X262500Y-140500D02*
D03*
Y-144500D02*
D03*
X208500Y-113500D02*
D03*
X192348Y-123652D02*
D03*
X189865Y-122434D02*
D03*
X211000Y-128500D02*
D03*
X211500Y-132000D02*
D03*
X250596Y-109884D02*
D03*
X238096D02*
D03*
X226096D02*
D03*
X226293Y-103884D02*
D03*
X238293D02*
D03*
X250793D02*
D03*
M02*
