G04*
G04 #@! TF.GenerationSoftware,Altium Limited,Altium Designer,20.1.12 (249)*
G04*
G04 Layer_Color=8388736*
%FSLAX25Y25*%
%MOIN*%
G70*
G04*
G04 #@! TF.SameCoordinates,A6E25834-E18E-4168-B90B-242D5B1D2A4A*
G04*
G04*
G04 #@! TF.FilePolarity,Negative*
G04*
G01*
G75*
%ADD16R,0.04737X0.04737*%
%ADD17R,0.04343X0.04737*%
%ADD18R,0.04737X0.04737*%
%ADD19R,0.03359X0.05131*%
%ADD20R,0.07887X0.11430*%
%ADD21O,0.06509X0.02965*%
%ADD22O,0.02965X0.06509*%
%ADD23R,0.04737X0.04343*%
%ADD24C,0.07493*%
%ADD25C,0.10642*%
%ADD26C,0.31496*%
%ADD27C,0.09855*%
%ADD28C,0.05524*%
%ADD29R,0.06706X0.06706*%
%ADD30C,0.06706*%
%ADD31C,0.14580*%
D16*
X342000Y-123150D02*
D03*
Y-116850D02*
D03*
X257269Y-155331D02*
D03*
Y-149031D02*
D03*
Y-141831D02*
D03*
Y-135531D02*
D03*
X208269Y-118532D02*
D03*
Y-124831D02*
D03*
X250269Y-49031D02*
D03*
Y-55331D02*
D03*
X229269Y-49531D02*
D03*
Y-55831D02*
D03*
X224769Y-21032D02*
D03*
Y-27331D02*
D03*
D17*
X254116Y-106681D02*
D03*
X247423D02*
D03*
X241616D02*
D03*
X234923D02*
D03*
X229616D02*
D03*
X222923D02*
D03*
X254116Y-94681D02*
D03*
X247423D02*
D03*
X241616D02*
D03*
X234923D02*
D03*
X229616D02*
D03*
X222923D02*
D03*
D18*
X247620Y-100681D02*
D03*
X253919D02*
D03*
X235120D02*
D03*
X241419D02*
D03*
X223120D02*
D03*
X229419D02*
D03*
D19*
X239769Y-47957D02*
D03*
X243510Y-57406D02*
D03*
X236029D02*
D03*
D20*
X195411Y-49681D02*
D03*
X213128D02*
D03*
Y-65681D02*
D03*
X195411D02*
D03*
Y-16681D02*
D03*
X213128D02*
D03*
Y-33681D02*
D03*
X195411D02*
D03*
D21*
X249403Y-147705D02*
D03*
Y-144555D02*
D03*
Y-141405D02*
D03*
Y-138256D02*
D03*
Y-135106D02*
D03*
Y-131957D02*
D03*
Y-128807D02*
D03*
Y-125657D02*
D03*
X216135D02*
D03*
Y-128807D02*
D03*
Y-131957D02*
D03*
Y-135106D02*
D03*
Y-138256D02*
D03*
Y-141405D02*
D03*
Y-144555D02*
D03*
Y-147705D02*
D03*
D22*
X243793Y-120047D02*
D03*
X240643D02*
D03*
X237494D02*
D03*
X234344D02*
D03*
X231194D02*
D03*
X228045D02*
D03*
X224895D02*
D03*
X221746D02*
D03*
Y-153315D02*
D03*
X224895D02*
D03*
X228045D02*
D03*
X231194D02*
D03*
X234344D02*
D03*
X237494D02*
D03*
X240643D02*
D03*
X243793D02*
D03*
D23*
X257269Y-122335D02*
D03*
Y-129028D02*
D03*
D24*
X198769Y-120181D02*
D03*
Y-130181D02*
D03*
Y-140181D02*
D03*
Y-150181D02*
D03*
Y-160181D02*
D03*
X242769Y-163181D02*
D03*
X232769D02*
D03*
X222769D02*
D03*
X212769D02*
D03*
X303752Y-116681D02*
D03*
Y-126681D02*
D03*
Y-136681D02*
D03*
Y-146681D02*
D03*
Y-156681D02*
D03*
Y-186681D02*
D03*
Y-176681D02*
D03*
Y-166681D02*
D03*
X353752Y-116681D02*
D03*
Y-126681D02*
D03*
Y-136681D02*
D03*
Y-146681D02*
D03*
Y-156681D02*
D03*
Y-186681D02*
D03*
Y-176681D02*
D03*
Y-166681D02*
D03*
D25*
X346142Y-39622D02*
D03*
Y-53402D02*
D03*
Y-80961D02*
D03*
Y-67181D02*
D03*
D26*
X19685Y-19685D02*
D03*
X295276D02*
D03*
X19685Y-177165D02*
D03*
D27*
X71269Y-135335D02*
D03*
Y-110728D02*
D03*
X154931Y-135335D02*
D03*
Y-61516D02*
D03*
X71269D02*
D03*
D28*
X329016Y-17181D02*
D03*
X352638D02*
D03*
X336890D02*
D03*
X344764D02*
D03*
D29*
X248269Y-34024D02*
D03*
D30*
Y-14339D02*
D03*
X249769Y-84681D02*
D03*
X239269Y-74181D02*
D03*
Y-84681D02*
D03*
X228769Y-74181D02*
D03*
Y-84681D02*
D03*
X249769Y-74181D02*
D03*
D31*
X31769Y-106575D02*
D03*
X30769Y-132181D02*
D03*
M02*
