G04*
G04 #@! TF.GenerationSoftware,Altium Limited,Altium Designer,20.1.12 (249)*
G04*
G04 Layer_Color=32896*
%FSLAX25Y25*%
%MOIN*%
G70*
G04*
G04 #@! TF.SameCoordinates,A6E25834-E18E-4168-B90B-242D5B1D2A4A*
G04*
G04*
G04 #@! TF.FilePolarity,Positive*
G04*
G01*
G75*
%ADD52C,0.01000*%
D52*
X324449Y-70090D02*
Y-72756D01*
Y-71423D01*
X323782Y-70757D01*
X323116Y-70090D01*
X322449D01*
X318451Y-72756D02*
X319784D01*
X320450Y-72089D01*
Y-70757D01*
X319784Y-70090D01*
X318451D01*
X317784Y-70757D01*
Y-71423D01*
X320450D01*
X316451Y-70090D02*
X315119Y-72756D01*
X313786Y-70090D01*
X308454Y-72756D02*
X307121D01*
X307787D01*
Y-68757D01*
X308454Y-69424D01*
X305122Y-72756D02*
Y-72089D01*
X304455D01*
Y-72756D01*
X305122D01*
X301789Y-69424D02*
X301123Y-68757D01*
X299790D01*
X299124Y-69424D01*
Y-72089D01*
X299790Y-72756D01*
X301123D01*
X301789Y-72089D01*
Y-69424D01*
X321783Y-45559D02*
X322449Y-44892D01*
X323782D01*
X324449Y-45559D01*
Y-46225D01*
X323782Y-46892D01*
X322449D01*
X321783Y-47558D01*
Y-48225D01*
X322449Y-48891D01*
X323782D01*
X324449Y-48225D01*
X319784Y-45559D02*
Y-46225D01*
X320450D01*
X319117D01*
X319784D01*
Y-48225D01*
X319117Y-48891D01*
X315119D02*
X316451D01*
X317118Y-48225D01*
Y-46892D01*
X316451Y-46225D01*
X315119D01*
X314452Y-46892D01*
Y-47558D01*
X317118D01*
X313119Y-50224D02*
Y-46225D01*
X311120D01*
X310453Y-46892D01*
Y-48225D01*
X311120Y-48891D01*
X313119D01*
X309120Y-50224D02*
Y-46225D01*
X307121D01*
X306455Y-46892D01*
Y-48225D01*
X307121Y-48891D01*
X309120D01*
X303122D02*
X304455D01*
X305122Y-48225D01*
Y-46892D01*
X304455Y-46225D01*
X303122D01*
X302456Y-46892D01*
Y-47558D01*
X305122D01*
X301123Y-46225D02*
Y-48891D01*
Y-47558D01*
X300457Y-46892D01*
X299790Y-46225D01*
X299124D01*
X297124Y-48891D02*
X294459Y-46225D01*
X290460Y-45559D02*
X291126Y-44892D01*
X292459D01*
X293126Y-45559D01*
Y-46225D01*
X292459Y-46892D01*
X291126D01*
X290460Y-47558D01*
Y-48225D01*
X291126Y-48891D01*
X292459D01*
X293126Y-48225D01*
X288460Y-45559D02*
Y-46225D01*
X289127D01*
X287794D01*
X288460D01*
Y-48225D01*
X287794Y-48891D01*
X283795D02*
X285128D01*
X285795Y-48225D01*
Y-46892D01*
X285128Y-46225D01*
X283795D01*
X283129Y-46892D01*
Y-47558D01*
X285795D01*
X281796Y-50224D02*
Y-46225D01*
X279797D01*
X279130Y-46892D01*
Y-48225D01*
X279797Y-48891D01*
X281796D01*
X277797D02*
X275798D01*
X275131Y-48225D01*
X275798Y-47558D01*
X277131D01*
X277797Y-46892D01*
X277131Y-46225D01*
X275131D01*
X273132Y-45559D02*
Y-46225D01*
X273798D01*
X272466D01*
X273132D01*
Y-48225D01*
X272466Y-48891D01*
X270466D02*
X269133D01*
X269800D01*
Y-46225D01*
X270466D01*
X264468D02*
X266467D01*
X267134Y-46892D01*
Y-48225D01*
X266467Y-48891D01*
X264468D01*
X263135D02*
Y-44892D01*
Y-47558D02*
X261136Y-46225D01*
X263135Y-47558D02*
X261136Y-48891D01*
X323782Y-53424D02*
Y-54090D01*
X324449D01*
X323116D01*
X323782D01*
Y-56090D01*
X323116Y-56756D01*
X319117D02*
X320450D01*
X321117Y-56090D01*
Y-54757D01*
X320450Y-54090D01*
X319117D01*
X318451Y-54757D01*
Y-55423D01*
X321117D01*
X317118Y-56756D02*
X315119D01*
X314452Y-56090D01*
X315119Y-55423D01*
X316451D01*
X317118Y-54757D01*
X316451Y-54090D01*
X314452D01*
X312453Y-53424D02*
Y-54090D01*
X313119D01*
X311786D01*
X312453D01*
Y-56090D01*
X311786Y-56756D01*
X307787D02*
X309120D01*
X309787Y-56090D01*
Y-54757D01*
X309120Y-54090D01*
X307787D01*
X307121Y-54757D01*
Y-55423D01*
X309787D01*
X305788Y-54090D02*
Y-56756D01*
Y-55423D01*
X305122Y-54757D01*
X304455Y-54090D01*
X303789D01*
X324449Y-60424D02*
Y-64423D01*
X322449D01*
X321783Y-63757D01*
Y-63090D01*
Y-62424D01*
X322449Y-61757D01*
X324449D01*
X320450D02*
Y-63757D01*
X319784Y-64423D01*
X317784D01*
Y-65089D01*
X318451Y-65756D01*
X319117D01*
X317784Y-64423D02*
Y-61757D01*
X309787Y-60424D02*
X311120D01*
X310453D01*
Y-63757D01*
X311120Y-64423D01*
X311786D01*
X312453Y-63757D01*
X307787Y-61757D02*
X306455D01*
X305788Y-62424D01*
Y-64423D01*
X307787D01*
X308454Y-63757D01*
X307787Y-63090D01*
X305788D01*
X304455Y-64423D02*
Y-60424D01*
Y-63090D02*
X302456Y-61757D01*
X304455Y-63090D02*
X302456Y-64423D01*
X300457Y-61757D02*
Y-63757D01*
X299790Y-64423D01*
X297791D01*
Y-61757D01*
X296458Y-60424D02*
Y-64423D01*
X294459D01*
X293792Y-63757D01*
Y-63090D01*
Y-62424D01*
X294459Y-61757D01*
X296458D01*
X288460Y-60424D02*
Y-64423D01*
Y-63090D01*
X285795Y-60424D01*
X287794Y-62424D01*
X285795Y-64423D01*
X283795Y-61757D02*
X282462D01*
X281796Y-62424D01*
Y-64423D01*
X283795D01*
X284462Y-63757D01*
X283795Y-63090D01*
X281796D01*
X280463Y-65756D02*
X279797D01*
X279130Y-65089D01*
Y-61757D01*
X276464D02*
X273798D01*
X276464Y-64423D01*
X273798D01*
X270466D02*
X271799D01*
X272466Y-63757D01*
Y-62424D01*
X271799Y-61757D01*
X270466D01*
X269800Y-62424D01*
Y-63090D01*
X272466D01*
X268467Y-61757D02*
Y-64423D01*
Y-63090D01*
X267800Y-62424D01*
X267134Y-61757D01*
X266467D01*
M02*
