M48
;Layer_Color=9474304
;FILE_FORMAT=2:5
INCH,LZ
;TYPE=PLATED
T1F00S00C0.01181
T2F00S00C0.03150
T3F00S00C0.03543
T4F00S00C0.03937
T5F00S00C0.05118
T6F00S00C0.06299
T7F00S00C0.07874
T8F00S00C0.12598
%
T01
X02145Y-01685
X02175Y-0171
X022Y-0174
X0222Y-01255
X0226Y-0126
X0226096Y-0109884
X0226293Y-0103884
X0238293
X0238096Y-0109884
X02085Y-01135
X0211Y-01285
X02115Y-0132
X0192348Y-0123652
X0189865Y-0122434
X02035Y-007
Y-0065
Y-00605
Y-0038
Y-00325
X023Y-00445
X02345Y-0049
X0245Y-00505
Y-0045
X02555Y-0054
X0250793Y-0103884
X0250596Y-0109884
X02625Y-01405
Y-01445
X0262Y-01545
Y-01585
X0248Y-01575
Y-0153
X03395Y-01285
X03435
X02295Y-00205
X02275Y-00155
X0223
X02035Y-00275
T02
X0329016Y-0017181
X033689
X0344764
X0352638
T03
X0248269Y-0034024
Y-0014339
T04
X0303752Y-0186681
X0353752
X0242769Y-0163181
X0232769
X0222769
X0212769
X0198769Y-0160181
Y-0150181
Y-0140181
Y-0130181
Y-0120181
X0228769Y-0084681
X0239269
Y-0074181
X0228769
X0249769
Y-0084681
X0303752Y-0116681
Y-0126681
Y-0136681
Y-0146681
Y-0156681
Y-0166681
Y-0176681
X0353752
Y-0166681
Y-0156681
Y-0146681
Y-0136681
Y-0126681
Y-0116681
T05
X0346142Y-0080961
Y-0067181
Y-0053402
Y-0039622
T06
X0071269Y-0135335
Y-0110728
Y-0061516
X0154931
Y-0135335
T07
X0030769Y-0132181
X0031769Y-0106575
T08
X0019685Y-0177165
X0295276Y-0019685
X0019685
M30
